<?xml version="1.0" encoding="UTF-8"?>
<svg version="1.1" xmlns="http://www.w3.org/2000/svg" width="829" height="301">
<path d="M0 0 C3.95831809 -0.02892857 7.91660917 -0.04677427 11.875 -0.0625 C13.56689453 -0.07506836 13.56689453 -0.07506836 15.29296875 -0.08789062 C16.36933594 -0.09111328 17.44570313 -0.09433594 18.5546875 -0.09765625 C19.54968262 -0.10289307 20.54467773 -0.10812988 21.56982422 -0.11352539 C24 0 24 0 26 1 C26.78088899 3.41076907 27.43785646 5.77222481 28.04370117 8.22827148 C28.23757416 8.98644669 28.43144714 9.74462189 28.63119507 10.52577209 C29.27612028 13.05566599 29.90943643 15.58832501 30.54296875 18.12109375 C30.99340021 19.89603295 31.44461021 21.67077473 31.89656067 23.44532776 C33.09283894 28.15019309 34.27960353 32.857406 35.46411133 37.56524658 C37.33534594 44.99508372 39.22138585 52.42118824 41.10550308 59.84776688 C41.56317338 61.65246054 42.02047779 63.45724704 42.47741318 65.26212692 C46.17856724 79.88043347 49.99837112 94.46063174 54 109 C56.34400192 103.06655726 58.11658098 97.14977374 59.6796875 90.96875 C59.92899017 89.99938004 60.17829285 89.03001007 60.43515015 88.03126526 C60.972225 85.94244432 61.50749816 83.85315946 62.0411377 81.76345825 C63.46728354 76.18200027 64.90886229 70.60454222 66.3515625 65.02734375 C66.64865112 63.87842148 66.94573975 62.72949921 67.25183105 61.54576111 C70.49734788 49.02776697 73.86189816 36.54253857 77.25 24.0625 C77.53389587 23.01513672 77.81779175 21.96777344 78.11029053 20.88867188 C78.91069716 17.93712507 79.71268167 14.98601388 80.515625 12.03515625 C80.75356781 11.15936417 80.99151062 10.28357208 81.23666382 9.38124084 C81.4553714 8.58004318 81.67407898 7.77884552 81.89941406 6.95336914 C82.08892639 6.25812637 82.27843872 5.56288361 82.47369385 4.84657288 C82.9379518 3.21769937 83.46439153 1.60682541 84 0 C92.25 0 100.5 0 109 0 C110.81935919 4.8516245 112.44306024 9.25888758 113.74243164 14.19604492 C114.05059814 15.35851242 114.35876465 16.52097992 114.67626953 17.71867371 C115.00095215 18.96006607 115.32563477 20.20145844 115.66015625 21.48046875 C116.00978728 22.80477401 116.35981263 24.12897522 116.71020508 25.45307922 C117.45006656 28.25180981 118.18749143 31.05116559 118.92288208 33.85107422 C120.06551983 38.20127599 121.21359258 42.55002993 122.36303711 46.8984375 C122.55293244 47.61685633 122.74282778 48.33527515 122.93847752 49.07546425 C123.32073118 50.52157325 123.70300352 51.96767732 124.08529472 53.4137764 C124.65514884 55.57005206 125.22448569 57.72646375 125.79371643 59.88290405 C128.84350514 71.4327403 131.93526498 82.97089395 135.0625 94.5 C135.27182159 95.27225922 135.48114319 96.04451843 135.69680786 96.84017944 C136.79579375 100.89401957 137.89665671 104.94734322 139 109 C144.04500574 91.85198616 148.5188917 74.56731067 152.9375 57.25 C156.82736652 42.00611555 160.72407874 26.76689574 164.94140625 11.609375 C165.23579086 10.54575745 165.53017548 9.48213989 165.83348083 8.3862915 C166.10443069 7.42318054 166.37538055 6.46006958 166.65454102 5.46777344 C166.89125015 4.62454529 167.12795929 3.78131714 167.37184143 2.91253662 C168 1 168 1 169 0 C172.43020341 -0.25194063 175.87413911 -0.18522745 179.3125 -0.1875 C180.27607422 -0.19974609 181.23964844 -0.21199219 182.23242188 -0.22460938 C183.62750977 -0.22750977 183.62750977 -0.22750977 185.05078125 -0.23046875 C185.90325439 -0.23457764 186.75572754 -0.23868652 187.6340332 -0.24291992 C190.19228152 0.01974204 191.75117411 0.80424884 194 2 C176.96240234 64.47119141 176.96240234 64.47119141 175.9657135 68.12559509 C175.31136443 70.52495608 174.65709744 72.92433946 174.00291443 75.32374573 C172.41492962 81.14775778 170.82558352 86.97139092 169.2331543 92.79418945 C166.51232072 102.74798072 163.80350498 112.70397461 161.1640625 122.6796875 C160.54825917 124.9926913 159.93172227 127.30549807 159.31488037 129.6182251 C158.76898985 131.6783351 158.23409068 133.7410805 157.69970703 135.80419922 C157.38114746 136.99803223 157.06258789 138.19186523 156.734375 139.421875 C156.33557129 140.94699707 156.33557129 140.94699707 155.92871094 142.50292969 C154.93706285 145.16922218 154.36293918 146.42218235 152 148 C149.36450195 148.34057617 149.36450195 148.34057617 146.23828125 148.29296875 C145.12001953 148.28330078 144.00175781 148.27363281 142.84960938 148.26367188 C141.68236328 148.23853516 140.51511719 148.21339844 139.3125 148.1875 C138.13365234 148.17396484 136.95480469 148.16042969 135.74023438 148.14648438 C132.82636589 148.11109326 129.91341055 148.06171809 127 148 C124.2020491 141.03010925 122.26128049 133.92252479 120.33984375 126.66796875 C119.99024411 125.36059612 119.6402181 124.05333744 119.28979492 122.7461853 C118.55024745 119.98537984 117.81280234 117.22402608 117.07711792 114.46218872 C115.17645688 107.32875865 113.26096042 100.19930969 111.34375 93.0703125 C111.15543043 92.36971018 110.96711086 91.66910786 110.77308464 90.94727516 C107.59324496 79.1240096 104.32860131 67.32705173 100.9375 55.5625 C100.72817841 54.83630463 100.51885681 54.11010925 100.30319214 53.36190796 C99.20917105 49.57253762 98.10860623 45.78512822 97 42 C94.37199915 48.62118398 92.4271824 55.33291622 90.55859375 62.203125 C90.23440964 63.38319122 89.91022552 64.56325745 89.57621765 65.77908325 C88.70602767 68.94877456 87.839023 72.11931638 86.97324371 75.29021454 C86.07696552 78.56885866 85.17582329 81.84616434 84.27490234 85.12353516 C82.17966421 92.74803699 80.08949714 100.3739227 78 108 C76.25533006 114.36711591 74.50869675 120.73366193 72.75222778 127.09753418 C72.13808697 129.32748117 71.52879474 131.55871554 70.91967773 133.79003906 C70.55349557 135.11791383 70.18705862 136.44571838 69.8203125 137.7734375 C69.51367676 138.89153809 69.20704102 140.00963867 68.89111328 141.16162109 C68.11966091 143.61885542 67.23797736 145.74981415 66 148 C61.89620302 148.14489234 57.79306033 148.23393542 53.6875 148.3125 C51.93663086 148.3753418 51.93663086 148.3753418 50.15039062 148.43945312 C49.03212891 148.45556641 47.91386719 148.47167969 46.76171875 148.48828125 C45.2142395 148.52755737 45.2142395 148.52755737 43.63549805 148.56762695 C41 148 41 148 39.45346069 145.85435486 C37.91836186 142.83967628 36.99106364 140.02766463 36.10913086 136.76269531 C35.76641647 135.50908203 35.42370209 134.25546875 35.07060242 132.96386719 C34.70191964 131.58531228 34.33333663 130.20673068 33.96484375 128.828125 C33.57023038 127.37480805 33.17489299 125.92168753 32.77888489 124.46875 C31.7117205 120.54651529 30.65355743 116.62190403 29.59703064 112.6967926 C28.49401773 108.6047252 27.38325785 104.51476477 26.27246094 100.42480469 C26.04905973 99.60223804 25.82565853 98.7796714 25.59548759 97.9321785 C25.14054451 96.25719154 24.68556221 94.58221524 24.23054123 92.90724945 C23.53876664 90.35952412 22.84801806 87.81152217 22.15737915 85.26348877 C19.04434364 73.78721775 15.87795406 62.3266951 12.67578125 50.875 C12.25241647 49.35888328 11.82911157 47.84274983 11.40586853 46.32659912 C8.98544734 37.65860154 8.98544734 37.65860154 6.55197144 28.9942627 C5.79172796 26.29528865 5.03462978 23.59547609 4.28141785 20.89453125 C3.60396055 18.46568014 2.92167269 16.038169 2.2335968 13.61230469 C1.93704697 12.54431641 1.64049713 11.47632812 1.33496094 10.37597656 C1.07551697 9.45254456 0.816073 8.52911255 0.54876709 7.57769775 C-0.00580572 4.97272908 -0.10235341 2.65467446 0 0 Z " fill="#FAF9F8" transform="translate(389,98)"/>
<path d="M0 0 C1.33875687 0.00303635 1.33875687 0.00303635 2.70455933 0.00613403 C4.10688309 0.00350555 4.10688309 0.00350555 5.53753662 0.00082397 C8.6440107 -0.00359617 11.75042837 -0.00065598 14.85690308 0.00271606 C17.00542207 0.00204307 19.15394099 0.00107309 21.30245972 -0.00018311 C25.81182579 -0.0016603 30.3211721 0.00049517 34.83053589 0.00515747 C40.62488885 0.01085477 46.41919549 0.00757588 52.21354675 0.00158501 C56.65203198 -0.00202002 61.09050614 -0.00088229 65.5289917 0.0017128 C67.66613775 0.00238223 69.80328479 0.00155309 71.94042969 -0.00076675 C74.92172934 -0.00329233 77.90295288 0.00054597 80.88424683 0.00613403 C81.7767514 0.0041098 82.66925598 0.00208557 83.58880615 0 C89.68014075 0.02126624 89.68014075 0.02126624 90.79440308 1.13552856 C90.79440308 8.06552856 90.79440308 14.99552856 90.79440308 22.13552856 C66.70440308 22.13552856 42.61440308 22.13552856 17.79440308 22.13552856 C17.79440308 35.66552856 17.79440308 49.19552856 17.79440308 63.13552856 C40.56440308 63.13552856 63.33440308 63.13552856 86.79440308 63.13552856 C86.79440308 70.06552856 86.79440308 76.99552856 86.79440308 84.13552856 C83.04623152 85.07257145 80.20721096 85.25648362 76.37350464 85.24905396 C75.07245789 85.24897842 73.77141113 85.24890289 72.43093872 85.24882507 C71.01563478 85.2437188 69.60033124 85.23850281 68.18502808 85.23318481 C66.73342945 85.23131892 65.28183019 85.22989582 63.83023071 85.22889709 C60.01620738 85.22508544 56.20222235 85.21526672 52.38821411 85.20419312 C47.80850516 85.19214784 43.22878338 85.18757032 38.64906311 85.18173981 C31.69748316 85.17205422 24.74598718 85.15288824 17.79440308 85.13552856 C17.79440308 98.33552856 17.79440308 111.53552856 17.79440308 125.13552856 C22.81272339 125.11232544 27.8310437 125.08912231 33.00143433 125.06521606 C36.17787178 125.05499876 39.35428901 125.04537096 42.5307312 125.03787231 C47.57414958 125.02590995 52.61749544 125.0117481 57.66085815 124.98464966 C61.72625715 124.96294224 65.7915784 124.95096438 69.85703087 124.94577408 C71.40919914 124.94207454 72.96136308 124.93485038 74.51349831 124.92406845 C76.68510814 124.9095813 78.85639539 124.90754943 81.02804565 124.90847778 C82.2649263 124.90403656 83.50180695 124.89959534 84.77616882 124.89501953 C87.79440308 125.13552856 87.79440308 125.13552856 90.79440308 127.13552856 C90.79440308 133.73552856 90.79440308 140.33552856 90.79440308 147.13552856 C58.45440308 147.13552856 26.11440308 147.13552856 -7.20559692 147.13552856 C-7.24589996 110.56276407 -7.24589996 110.56276407 -7.25442505 95.28591919 C-7.26036831 84.72024045 -7.26737072 74.15456966 -7.28103638 63.58889771 C-7.29098243 55.89540792 -7.29745016 48.20192455 -7.29968542 40.50842851 C-7.30099266 36.43223204 -7.30407935 32.35605395 -7.31132698 28.27986336 C-7.31808597 24.44765102 -7.32021414 20.61546473 -7.31870461 16.78324699 C-7.31898099 15.37267796 -7.32098684 13.96210809 -7.3248024 12.55154419 C-7.32973767 10.63387168 -7.32799494 8.71618536 -7.32585144 6.79850769 C-7.32677323 5.72277528 -7.32769503 4.64704287 -7.32864475 3.5387125 C-7.08370347 -1.24510988 -4.09086623 0.01428215 0 0 Z " fill="#FBFAFA" transform="translate(52.205596923828125,97.86447143554688)"/>
<path d="M0 0 C7.59 0 15.18 0 23 0 C23.33 27.72 23.66 55.44 24 84 C28.68002865 81.22707507 28.68002865 81.22707507 32.05078125 77.57421875 C35.13377325 73.92354883 38.40298919 70.50835654 41.79296875 67.14453125 C42.31021515 66.63058807 42.82746155 66.1166449 43.36038208 65.58712769 C44.96747308 63.99360202 46.57704917 62.40262969 48.1875 60.8125 C50.32978843 58.69697823 52.4686112 56.57803696 54.60546875 54.45703125 C55.08783493 53.98296341 55.57020111 53.50889557 56.06718445 53.02046204 C58.28116254 50.82246565 60.29322811 48.6234085 62.2121582 46.15893555 C62.802146 45.44648682 63.39213379 44.73403809 64 44 C64.66 44 65.32 44 66 44 C66 43.34 66 42.68 66 42 C74.91 42 83.82 42 93 42 C93.33 42.99 93.66 43.98 94 45 C93.34 45 92.68 45 92 45 C91.72559082 45.59659424 91.45118164 46.19318848 91.16845703 46.80786133 C90.04693553 48.9119444 88.93773623 50.35488423 87.3046875 52.07421875 C86.48931519 52.9398645 86.48931519 52.9398645 85.6574707 53.82299805 C85.06925537 54.43828369 84.48104004 55.05356934 83.875 55.6875 C82.96077271 56.65586792 82.96077271 56.65586792 82.02807617 57.64379883 C80.02295422 59.76658571 78.01163302 61.88338356 76 64 C73.81270705 66.30850932 71.62713085 68.61860614 69.44384766 70.9309082 C68.04609464 72.41079722 66.6461038 73.88857649 65.24365234 75.36401367 C64.60250488 76.04181885 63.96135742 76.71962402 63.30078125 77.41796875 C62.73528564 78.01375732 62.16979004 78.6095459 61.5871582 79.22338867 C61.063396 79.80967041 60.53963379 80.39595215 60 81 C59.39567139 81.63075439 58.79134277 82.26150879 58.16870117 82.91137695 C56.70655143 84.96860246 56.70655143 84.96860246 57.57788086 87.38012695 C59.1782965 90.32846347 60.90173559 93.11977444 62.75390625 95.91796875 C63.12708984 96.4846225 63.50027344 97.05127625 63.88476562 97.63510132 C65.1066531 99.48859292 66.3346377 101.33796237 67.5625 103.1875 C68.4125321 104.47549753 69.26205394 105.76383194 70.11108398 107.05249023 C71.86245682 109.70979885 73.61588373 112.36573222 75.37109375 115.02050781 C79.07635597 120.6266325 82.76637108 126.24271213 86.44869995 131.86392212 C87.54459662 133.53519681 88.64348987 135.20450533 89.74243164 136.8737793 C90.40621826 137.88609619 91.07000488 138.89841309 91.75390625 139.94140625 C92.33470947 140.82513916 92.9155127 141.70887207 93.51391602 142.61938477 C94.81509816 144.70379862 95.94956313 146.78105265 97 149 C91.11227173 149.84496674 85.38576128 150.26820267 79.4375 150.1875 C78.22030273 150.23487305 78.22030273 150.23487305 76.97851562 150.28320312 C73.35978164 150.20434452 70.95054499 149.91522937 68.28491211 147.34863281 C66.3655738 144.64783919 64.69659049 141.84671595 63 139 C61.07163534 136.03214838 59.10069803 133.09280274 57.13671875 130.1484375 C56.07385648 128.54103416 55.01202156 126.93295106 53.95117188 125.32421875 C53.41548584 124.51259277 52.8797998 123.7009668 52.32788086 122.86474609 C51.22335783 121.18831718 50.12085617 119.51055493 49.02026367 117.83154297 C47.41950086 115.39131832 45.81018607 112.95693328 44.19921875 110.5234375 C43.70653 109.76735199 43.21384125 109.01126648 42.70622253 108.23226929 C41.5228548 106.45245985 40.26819905 104.72039298 39 103 C36.61575404 102.77468046 36.61575404 102.77468046 34.21484375 105.5546875 C33.11721342 106.65631892 32.02498316 107.76335055 30.9375 108.875 C30.10508789 109.70837891 30.10508789 109.70837891 29.25585938 110.55859375 C24.57103628 115.294773 23.84047865 117.72148224 23.68359375 124.1953125 C23.66281265 124.90275604 23.64203156 125.61019958 23.62062073 126.33908081 C23.55518922 128.60095425 23.49627026 130.86294462 23.4375 133.125 C23.39430867 134.65756422 23.35069418 136.19011657 23.30664062 137.72265625 C23.19871711 141.48165268 23.09959717 145.24073675 23 149 C15.41 149 7.82 149 0 149 C0 99.83 0 50.66 0 0 Z " fill="#FBFAFA" transform="translate(161,96)"/>
<path d="M0 0 C11.55001553 8.56478074 18.44657642 19.82190379 22.0859375 33.6328125 C24.37660643 49.39261476 22.45833205 64.94571242 13.4765625 78.3203125 C8.07876853 85.37260271 2.02293848 90.67829833 -5.5234375 95.3203125 C-6.1215625 95.71992188 -6.7196875 96.11953125 -7.3359375 96.53125 C-18.94503856 103.42415376 -35.18382494 103.32243107 -47.89453125 100.59765625 C-63.04831182 96.47454281 -74.02526243 87.29121129 -82.5234375 74.3203125 C-90.63622809 58.9744315 -91.37650566 42.82444887 -86.5234375 26.3203125 C-81.57231526 12.79734938 -71.44844092 1.6850322 -58.5234375 -4.6796875 C-38.89759187 -12.53002575 -17.86879065 -11.89408666 0 0 Z M-58.5234375 24.3203125 C-64.81536643 34.16854909 -66.32222307 45.03562008 -63.83984375 56.46875 C-60.47196863 66.44660409 -54.92329559 73.45224289 -45.5234375 78.3203125 C-36.61958904 81.80807235 -28.18852579 80.72809512 -19.5234375 77.3203125 C-11.55333273 72.80893244 -5.75208954 66.39464673 -2.7734375 57.6953125 C0.0217103 47.46691451 -0.8856392 37.31259147 -5.77734375 27.91015625 C-10.13636312 20.79557149 -16.19087859 15.43619812 -24.1953125 12.7890625 C-38.34863163 9.93940093 -49.0928309 13.58950011 -58.5234375 24.3203125 Z " fill="#FAF9F9" transform="translate(356.5234375,145.6796875)"/>
<path d="M0 0 C0.86625 0.66 1.7325 1.32 2.625 2 C3.45 2.556875 4.275 3.11375 5.125 3.6875 C12.77495116 10.76370482 16.59006535 19.46741961 17.02807617 29.77856445 C17.20068848 40.2907767 15.33467461 48.19746764 8.4375 56.3125 C-0.12170144 65.13786319 -8.88421793 70.01946375 -21.25 70.4375 C-32.85675775 70.12582552 -41.78517126 65.73618116 -50.375 58 C-57.34879558 50.21174654 -61.1277968 41.22126247 -60.71484375 30.69921875 C-59.17686586 18.48378519 -54.03543148 9.30717669 -44.4375 1.625 C-30.47388424 -8.07806371 -14.64849761 -8.68059118 0 0 Z " fill="#F4F4F4" transform="translate(775.375,59)"/>
<path d="M0 0 C1.55606751 1.55606751 1.12970769 3.05957371 1.1328125 5.21875 C1.13474609 6.49298828 1.13474609 6.49298828 1.13671875 7.79296875 C1.13285156 8.68628906 1.12898437 9.57960937 1.125 10.5 C1.13080078 11.83998047 1.13080078 11.83998047 1.13671875 13.20703125 C1.13542969 14.05652344 1.13414062 14.90601563 1.1328125 15.78125 C1.13168457 16.56564453 1.13055664 17.35003906 1.12939453 18.15820312 C1 20 1 20 0 21 C-1.90769038 21.21290246 -3.81621999 21.42022475 -5.7277832 21.5949707 C-14.17632156 22.38213453 -20.87182815 23.09497257 -27.3125 29.1875 C-32.49422129 37.82370215 -32.45515437 46.69876211 -32.4765625 56.5 C-32.49089446 57.98691199 -32.50665538 59.47381083 -32.52377319 60.96069336 C-32.56536123 64.84655162 -32.59054085 68.73232816 -32.61126709 72.61834717 C-32.64728892 78.86549373 -32.7079512 85.11243979 -32.76975632 91.359375 C-32.78886852 93.540364 -32.80057551 95.72129873 -32.81118774 97.90234375 C-32.82658096 99.87074219 -32.82658096 99.87074219 -32.84228516 101.87890625 C-32.85202866 103.62022827 -32.85202866 103.62022827 -32.86196899 105.39672852 C-33 108 -33 108 -34 109 C-35.63472882 109.08700342 -37.27314055 109.10701063 -38.91015625 109.09765625 C-39.89951172 109.09443359 -40.88886719 109.09121094 -41.90820312 109.08789062 C-42.94912109 109.07951172 -43.99003906 109.07113281 -45.0625 109.0625 C-46.10728516 109.05798828 -47.15207031 109.05347656 -48.22851562 109.04882812 C-50.8190666 109.03699913 -53.40950559 109.02051689 -56 109 C-56.92282063 106.23153811 -57.12555695 104.5963351 -57.12698364 101.74241638 C-57.12980347 100.87452484 -57.13262329 100.0066333 -57.13552856 99.11244202 C-57.13350433 98.16324387 -57.1314801 97.21404572 -57.12939453 96.23608398 C-57.13114685 95.23424072 -57.13289917 94.23239746 -57.13470459 93.20019531 C-57.13911299 89.88214394 -57.13618887 86.56414568 -57.1328125 83.24609375 C-57.13348578 80.94588714 -57.134456 78.64568061 -57.13571167 76.34547424 C-57.13718723 71.52270837 -57.13503842 66.69996099 -57.13037109 61.87719727 C-57.1246707 55.68392434 -57.12795569 49.49069471 -57.13394356 43.29742336 C-57.13755026 38.54750744 -57.13641013 33.79760185 -57.13381577 29.04768562 C-57.13314696 26.76343849 -57.13397329 24.47919043 -57.13629532 22.19494438 C-57.13882395 19.00811131 -57.13497836 15.82134924 -57.12939453 12.63452148 C-57.13141876 11.6832991 -57.13344299 10.73207672 -57.13552856 9.75202942 C-57.13270874 8.8869577 -57.12988892 8.02188599 -57.12698364 7.13059998 C-57.12660662 6.3767826 -57.12622959 5.62296522 -57.12584114 4.84630489 C-57 3 -57 3 -56 1 C-52.52085059 0.97112186 -49.04173169 0.95324313 -45.5625 0.9375 C-44.07266602 0.92493164 -44.07266602 0.92493164 -42.55273438 0.91210938 C-41.60849609 0.90888672 -40.66425781 0.90566406 -39.69140625 0.90234375 C-38.37958374 0.89448853 -38.37958374 0.89448853 -37.04125977 0.88647461 C-35 1 -35 1 -34 2 C-33.85884839 4.67058851 -33.95752893 7.32432238 -34 10 C-33.39414062 9.52949219 -32.78828125 9.05898437 -32.1640625 8.57421875 C-21.77953835 0.8577185 -12.92450994 -0.93473507 0 0 Z " fill="#FAF9F9" transform="translate(701,137)"/>
<path d="M0 0 C10.85030184 1.37781611 18.73312994 8.78623004 25.9375 16.5 C33.43332458 26.24898993 36.70284934 38.27993217 35.6875 50.51171875 C34.57632442 58.26018417 32.61106498 65.62794037 28.125 72.125 C24.77137935 74.23299012 22.86127932 74.06958087 18.9375 73.5 C5.82534672 68.91625566 -3.86620587 57.95876149 -10.41015625 46.046875 C-15.16882874 36.0178448 -15.57576598 24.35079873 -12.05078125 13.859375 C-9.70327272 8.25504634 -6.43855858 1.05119324 0 0 Z " fill="#FAF9F9" transform="translate(287.0625,40.5)"/>
<path d="M0 0 C3.22196391 2.3307824 4.70383918 3.83878188 5.69140625 7.7109375 C6.78642255 19.38187077 2.20380379 31.31446959 -4 41 C-5.61733487 42.71457968 -7.28377167 44.38441469 -9 46 C-9.68320312 46.74121094 -10.36640625 47.48242188 -11.0703125 48.24609375 C-19.70730425 57.45779028 -31.35258505 64.0267425 -44.09765625 65.3125 C-51.30340038 65.46439974 -51.30340038 65.46439974 -55 63 C-57.20687321 50.23777198 -52.92147707 37.79869317 -46.125 27.0625 C-45.11297445 25.68604038 -44.07041685 24.3315572 -43 23 C-42.40445312 22.24332031 -41.80890625 21.48664063 -41.1953125 20.70703125 C-33.70589104 11.72874889 -24.74475341 6.35920265 -14 2 C-12.4221875 1.3503125 -12.4221875 1.3503125 -10.8125 0.6875 C-6.88299932 -0.27304461 -4.06462059 -0.45162451 0 0 Z " fill="#FCFBFB" transform="translate(392,58)"/>
<path d="M0 0 C3.64581687 -0.02887512 7.29160463 -0.04675585 10.9375 -0.0625 C12.49887695 -0.07506836 12.49887695 -0.07506836 14.09179688 -0.08789062 C15.57583008 -0.09272461 15.57583008 -0.09272461 17.08984375 -0.09765625 C18.46450806 -0.10551147 18.46450806 -0.10551147 19.86694336 -0.11352539 C22 0 22 0 23 1 C23.09754565 2.37642899 23.12631619 3.75781435 23.12698364 5.13769531 C23.12980347 6.02952515 23.13262329 6.92135498 23.13552856 7.84020996 C23.13350433 8.82622192 23.1314801 9.81223389 23.12939453 10.828125 C23.13114685 11.86054321 23.13289917 12.89296143 23.13470459 13.95666504 C23.13912533 17.38779352 23.13618433 20.81887094 23.1328125 24.25 C23.13348548 26.62272146 23.13445545 28.99544284 23.13571167 31.36816406 C23.13718894 36.34831395 23.13503314 41.32844594 23.13037109 46.30859375 C23.1246738 52.70828679 23.12795264 59.1079379 23.13394356 65.50762939 C23.13754837 70.40934569 23.13641095 75.31105196 23.13381577 80.21276855 C23.13314628 82.57320155 23.13397568 84.93363544 23.13629532 87.29406738 C23.13882054 90.58669463 23.13498309 93.87925292 23.12939453 97.171875 C23.13141876 98.15788696 23.13344299 99.14389893 23.13552856 100.15979004 C23.13129883 101.49753479 23.13129883 101.49753479 23.12698364 102.86230469 C23.12660662 103.64176453 23.12622959 104.42122437 23.12584114 105.2243042 C23 107 23 107 22 108 C20.45044441 108.09899523 18.89646327 108.13079524 17.34375 108.1328125 C15.93416016 108.13474609 15.93416016 108.13474609 14.49609375 108.13671875 C13.01302734 108.13091797 13.01302734 108.13091797 11.5 108.125 C10.51128906 108.12886719 9.52257812 108.13273437 8.50390625 108.13671875 C7.56417969 108.13542969 6.62445312 108.13414062 5.65625 108.1328125 C4.78806641 108.13168457 3.91988281 108.13055664 3.02539062 108.12939453 C1 108 1 108 0 107 C-0.09543095 105.60856311 -0.12188575 104.21231633 -0.12025452 102.81761169 C-0.12162918 101.91592255 -0.12300385 101.0142334 -0.12442017 100.08522034 C-0.12082489 99.08828659 -0.11722961 98.09135284 -0.11352539 97.06420898 C-0.11367142 96.02043091 -0.11381744 94.97665283 -0.1139679 93.90124512 C-0.11326826 90.43284057 -0.10547353 86.96448897 -0.09765625 83.49609375 C-0.09579225 81.09855682 -0.09436826 78.7010195 -0.09336853 76.30348206 C-0.08954194 69.97904416 -0.07971046 63.65462906 -0.06866455 57.3302002 C-0.05845345 50.88224598 -0.05387156 44.43428809 -0.04882812 37.98632812 C-0.03808832 25.324209 -0.02120119 12.66210571 0 0 Z " fill="#FBFBFB" transform="translate(597,138)"/>
<path d="M0 0 C6.6560975 5.13496718 13.24759492 10.80361139 16 19 C16.11328125 21.76171875 16.11328125 21.76171875 16 24 C10.6800627 27.3599604 6.1092695 27.9108053 0 27 C-11.13902758 23.6016526 -20.28276716 18.31893938 -26.68359375 8.47265625 C-28.47640287 5.10515426 -29.07937597 2.81004678 -29 -1 C-22.32283757 -7.67716243 -7.1382511 -4.80411709 0 0 Z " fill="#ECEAEA" transform="translate(274,107)"/>
<path d="M0 0 C2.43647047 1.98040264 3.75511036 3.49661574 5.125 6.3125 C4.95110292 10.05128719 3.34920672 11.60216081 0.91210938 14.33959961 C-2.39708931 17.21317727 -6.13476631 18.06415757 -10.3125 19.125 C-12.01887173 19.61304301 -13.72335141 20.10775451 -15.42578125 20.609375 C-16.22709473 20.84462891 -17.0284082 21.07988281 -17.85400391 21.32226562 C-21.98053201 22.6254786 -25.45838571 24.55122669 -29 27 C-29.93457031 27.64324219 -30.86914062 28.28648438 -31.83203125 28.94921875 C-37.27227646 32.77402436 -37.27227646 32.77402436 -42.15234375 37.26171875 C-42.76207031 37.83535156 -43.37179687 38.40898438 -44 39 C-46.75 38.75 -46.75 38.75 -49 38 C-46.8048698 25.4278907 -40.47282647 15.73921687 -30.2890625 7.91796875 C-20.90251543 1.67341713 -11.46597917 -1.94936995 0 0 Z " fill="#FAF8F8" transform="translate(387,35)"/>
<path d="M0 0 C3.609375 -0.020625 7.21875 -0.04125 10.9375 -0.0625 C12.07695068 -0.071604 13.21640137 -0.08070801 14.39038086 -0.09008789 C15.28120361 -0.09258545 16.17202637 -0.09508301 17.08984375 -0.09765625 C18.46450806 -0.10551147 18.46450806 -0.10551147 19.86694336 -0.11352539 C22 0 22 0 23 1 C23.08748207 2.92667507 23.10697334 4.85651861 23.09765625 6.78515625 C23.09443359 7.95498047 23.09121094 9.12480469 23.08789062 10.33007812 C23.07951172 11.56177734 23.07113281 12.79347656 23.0625 14.0625 C23.05798828 15.29806641 23.05347656 16.53363281 23.04882812 17.80664062 C23.03699618 20.87111413 23.01906008 23.93556293 23 27 C15.41 27 7.82 27 0 27 C0 18.09 0 9.18 0 0 Z " fill="#F9F8F9" transform="translate(597,98)"/>
<path d="M0 0 C10.85030184 1.37781611 18.73312994 8.78623004 25.9375 16.5 C33.43332458 26.24898993 36.70284934 38.27993217 35.6875 50.51171875 C34.57632442 58.26018417 32.61106498 65.62794037 28.125 72.125 C24.77137935 74.23299012 22.86127932 74.06958087 18.9375 73.5 C5.82534672 68.91625566 -3.86620587 57.95876149 -10.41015625 46.046875 C-15.16882874 36.0178448 -15.57576598 24.35079873 -12.05078125 13.859375 C-9.70327272 8.25504634 -6.43855858 1.05119324 0 0 Z M-5.125 3.875 C-11.6069457 12.65699095 -12.97241434 23.34976724 -11.7890625 33.94921875 C-9.69046938 46.56057551 -2.40036692 57.9999789 7.9375 65.5 C12.46250964 68.64195021 16.33511575 71.21570602 21.8125 72.1875 C24.98926971 71.73851669 24.98926971 71.73851669 27.125 69.6875 C34.17085999 57.29650484 34.84391102 44.60903089 31.25 30.9375 C28.76552375 23.32660443 26.28478922 17.2729323 18.9375 13.5 C18.2775 12.51 17.6175 11.52 16.9375 10.5 C16.2775 10.5 15.6175 10.5 14.9375 10.5 C14.9375 9.84 14.9375 9.18 14.9375 8.5 C14.33421875 8.23445313 13.7309375 7.96890625 13.109375 7.6953125 C12.31015625 7.34210937 11.5109375 6.98890625 10.6875 6.625 C9.89859375 6.27695312 9.1096875 5.92890625 8.296875 5.5703125 C6.77905012 4.8817628 5.27666004 4.15752089 3.796875 3.390625 C0.41689507 1.77164302 -1.99677338 1.78951558 -5.125 3.875 Z " fill="#B4ACAE" transform="translate(287.0625,40.5)"/>
<path d="M0 0 C2.65639885 2.65639885 2.65234498 4.28009133 3 8 C1.85232341 21.1982808 -2.1648532 33.74160564 -12 43 C-12.68320312 43.74121094 -13.36640625 44.48242188 -14.0703125 45.24609375 C-22.70730425 54.45779028 -34.35258505 61.0267425 -47.09765625 62.3125 C-54.30340038 62.46439974 -54.30340038 62.46439974 -58 60 C-60.37929931 46.24064122 -55.22248899 32.77203663 -47.39453125 21.6015625 C-46 20 -46 20 -43 18 C-44.17961539 20.38270571 -45.38943044 22.74507895 -46.62109375 25.1015625 C-52.52262978 36.54927325 -55.41160886 46.055395 -56 59 C-44.80763863 59.71440605 -35.8416994 57.17984179 -26 52 C-25.34 52 -24.68 52 -24 52 C-24 51.34 -24 50.68 -24 50 C-20.53846154 47 -20.53846154 47 -18 47 C-17.72929687 46.41089844 -17.45859375 45.82179687 -17.1796875 45.21484375 C-16.01474061 43.02767525 -14.76898785 41.40666253 -13.125 39.5625 C-12.07725556 38.38035902 -11.03615022 37.19231641 -10 36 C-8.99646484 34.88044922 -8.99646484 34.88044922 -7.97265625 33.73828125 C-5.67009062 30.54204659 -4.44291952 27.35343308 -3.3125 23.625 C-2.99116089 22.58956055 -2.99116089 22.58956055 -2.66333008 21.53320312 C-0.5926495 14.40040901 -0.11706175 7.40681595 0 0 Z " fill="#A9A0A1" transform="translate(395,61)"/>
<path d="M0 0 C0.86625 0.66 1.7325 1.32 2.625 2 C3.45 2.556875 4.275 3.11375 5.125 3.6875 C12.77495116 10.76370482 16.59006535 19.46741961 17.02807617 29.77856445 C17.22999112 42.07532818 14.25566971 50.00142368 5.84375 59.00390625 C3.81826425 60.82613023 2.11955294 61.95115388 -0.375 63 C-0.375 62.34 -0.375 61.68 -0.375 61 C0.83560834 59.91280319 2.09490544 58.87945376 3.375 57.875 C10.02393265 52.19104519 11.89415105 46.5999382 12.625 38 C12.81932537 34.83185657 12.89929524 31.67354228 12.9375 28.5 C12.96650391 27.69691406 12.99550781 26.89382812 13.02539062 26.06640625 C13.08684538 20.23293135 11.91527785 15.86544188 8.625 11 C6.24381834 8.77831634 6.24381834 8.77831634 3.625 7 C2.820625 6.154375 2.01625 5.30875 1.1875 4.4375 C-3.88486036 -0.38742814 -8.63617077 -1.41906645 -15.375 -2 C-15.375 -2.66 -15.375 -3.32 -15.375 -4 C-20.325 -3.67 -25.275 -3.34 -30.375 -3 C-30.375 -3.66 -30.375 -4.32 -30.375 -5 C-19.61857182 -8.12775571 -9.40851808 -5.57541812 0 0 Z " fill="#B8AFB1" transform="translate(775.375,59)"/>
<path d="M0 0 C-1 3 -1 3 -3.25 5.1875 C-9.41485354 11.49246384 -12.27234326 18.71036165 -15 27 C-14.34 27 -13.68 27 -13 27 C-12.73316406 26.40058594 -12.46632813 25.80117187 -12.19140625 25.18359375 C-8.75965107 18.89391786 -1.34853158 14.85223883 5 12 C8.5625 11.1875 8.5625 11.1875 11 11 C8.05170447 13.28853709 5.00081634 15.25058632 1.8125 17.1875 C-3.00185755 20.18924229 -6.96185085 23.55047919 -10.9296875 27.59375 C-13 29 -13 29 -15.7578125 28.71875 C-16.49773437 28.4815625 -17.23765625 28.244375 -18 28 C-16.6163853 20.07566129 -9.96218809 0 0 0 Z " fill="#C6BBBE" transform="translate(356,45)"/>
<path d="M0 0 C4.66658239 -0.42423476 7.80525342 1.05243909 12 3 C12.79535156 3.27972656 13.59070313 3.55945312 14.41015625 3.84765625 C23.46725678 7.87758786 30.40664349 16.92103891 34.21484375 25.84765625 C37.25746137 34.2392173 39.90255776 43.50619782 36 52 C35.67 52 35.34 52 35 52 C34.97421875 51.07960937 34.9484375 50.15921875 34.921875 49.2109375 C34.40728315 37.72618304 33.02392311 25.5029548 26 16 C23.02236957 13.73674754 23.02236957 13.73674754 20 12 C18.125 10.375 18.125 10.375 17 9 C17 8.34 17 7.68 17 7 C16.443125 6.81824219 15.88625 6.63648438 15.3125 6.44921875 C10.15803009 4.75137815 5.06989385 2.93577765 0 1 C0 0.67 0 0.34 0 0 Z " fill="#B7AEB1" transform="translate(285,42)"/>
<path d="M0 0 C8.67779259 4.4274452 15.44268225 10.72146613 19 20 C19.12890625 22.7734375 19.12890625 22.7734375 19 25 C13.70194215 28.3461418 9.08881121 28.94714841 3 28 C-1.13418576 26.59593691 -5.06742905 24.89195853 -9 23 C-6.43041792 22.04830293 -5.34479602 21.85628467 -2.76953125 22.9296875 C0.92846871 24.35881583 4.41354242 24.2155924 8.3125 24.125 C9.42334961 24.11146484 9.42334961 24.11146484 10.55664062 24.09765625 C12.37123467 24.07424213 14.18566071 24.03837615 16 24 C15.40594522 19.79635521 15.11544526 17.86620964 12 15 C11.74347656 14.23171875 11.48695313 13.4634375 11.22265625 12.671875 C9.6880354 9.31826266 7.82687974 7.98646272 4.875 5.8125 C3.21736672 4.58453654 1.58286299 3.32294637 0 2 C0 1.34 0 0.68 0 0 Z " fill="#9F9193" transform="translate(271,106)"/>
<path d="M0 0 C2.65639885 2.65639885 2.65234498 4.28009133 3 8 C1.85762845 21.13727285 -2.13389165 33.82823315 -12 43 C-12.598125 43.598125 -13.19625 44.19625 -13.8125 44.8125 C-14.204375 45.204375 -14.59625 45.59625 -15 46 C-15.99 45.67 -16.98 45.34 -18 45 C-17.46890625 44.40832031 -16.9378125 43.81664062 -16.390625 43.20703125 C-15.68421875 42.41683594 -14.9778125 41.62664062 -14.25 40.8125 C-13.20585937 39.64654297 -13.20585937 39.64654297 -12.140625 38.45703125 C-11.43421875 37.64621094 -10.7278125 36.83539063 -10 36 C-9.30777344 35.22785156 -8.61554688 34.45570312 -7.90234375 33.66015625 C-5.63897035 30.49515156 -4.42950927 27.30920241 -3.3125 23.625 C-2.99116089 22.58956055 -2.99116089 22.58956055 -2.66333008 21.53320312 C-0.5926495 14.40040901 -0.11706175 7.40681595 0 0 Z " fill="#BDB4B6" transform="translate(395,61)"/>
<path d="M0 0 C1.1034375 -0.01417969 2.206875 -0.02835937 3.34375 -0.04296875 C6.48252023 0.18622363 8.67183214 0.85256256 11.5 2.1875 C11.5 2.8475 11.5 3.5075 11.5 4.1875 C10.78585937 4.02507812 10.07171875 3.86265625 9.3359375 3.6953125 C2.45355811 2.46293051 -4.64777685 2.969327 -11.5 4.1875 C-8.87222895 13.220463 -3.04264603 18.68876435 3.5 25.1875 C-2.90396438 22.99185507 -6.7061024 19.41495135 -10.3125 13.75 C-10.91707031 12.82316406 -11.52164063 11.89632812 -12.14453125 10.94140625 C-13.58305047 8.01876633 -13.95634702 6.39292545 -13.5 3.1875 C-9.8333562 -0.4791438 -4.96110763 0.02897843 0 0 Z " fill="#A3939A" transform="translate(258.5,102.8125)"/>
<path d="M0 0 C0.33 0 0.66 0 1 0 C1.71577758 7.87355338 -0.68773503 16.30289386 -5.3125 22.75 C-8 25 -8 25 -11.1875 25.6875 C-16.29680156 24.76615054 -20.64544164 22.8260845 -25 20 C-25.66 19.01 -26.32 18.02 -27 17 C-23.98901664 17.48175734 -22.34607955 18.40715802 -19.6875 20.0625 C-15.99958076 22.20719123 -13.29442036 22.81026799 -9 22 C-3.65416043 16.34868389 -1.34546179 7.51555931 0 0 Z " fill="#AAA0A4" transform="translate(321,89)"/>
<path d="M0 0 C0.33 0 0.66 0 1 0 C1.02578125 0.89460938 1.0515625 1.78921875 1.078125 2.7109375 C1.68675243 15.68576773 5.21274952 23.71907942 13 34 C12.01 34 11.02 34 10 34 C2.01952583 25.53683586 -1.42439181 16.6163416 -1.203125 5.12890625 C-1 3 -1 3 0 0 Z " fill="#ABA7A6" transform="translate(716,84)"/>
<path d="M0 0 C0.99 0.33 1.98 0.66 3 1 C1.41925436 1.81752303 -0.16471223 2.62881997 -1.75 3.4375 C-2.63171875 3.88996094 -3.5134375 4.34242187 -4.421875 4.80859375 C-12.77125448 8.66701911 -22.87786074 8.11892401 -31.375 5 C-32.92635849 4.35620858 -34.47241299 3.69832549 -36 3 C-34.25 2.375 -34.25 2.375 -32 2 C-31.43796875 2.30292969 -30.8759375 2.60585937 -30.296875 2.91796875 C-26.71185488 4.60683027 -23.16236029 4.32848186 -19.25 4.3125 C-18.4765625 4.32861328 -17.703125 4.34472656 -16.90625 4.36132812 C-10.53616196 4.36667216 -5.71859169 2.85929584 0 0 Z " fill="#A9A0A0" transform="translate(772,122)"/>
<path d="M0 0 C0.33 0 0.66 0 1 0 C1.57429885 12.71433837 1.23375017 22.47624156 -7.5 32.5625 C-10.15603545 35.40500369 -12.39888657 37.48589549 -16 39 C-16 38.34 -16 37.68 -16 37 C-14.78939166 35.91280319 -13.53009456 34.87945376 -12.25 33.875 C-8.08766201 30.32196369 -5.95629833 27.06168451 -4 22 C-3.71382812 21.32324219 -3.42765625 20.64648438 -3.1328125 19.94921875 C-0.64114654 13.45902218 -0.30911609 6.8964866 0 0 Z " fill="#978A8A" transform="translate(791,83)"/>
<path d="M0 0 C1.06044585 2.09679066 2.09201801 4.19903896 3.078125 6.33203125 C5.47699431 11.40963795 7.97846472 15.55426026 11.86328125 19.625 C13 21 13 21 13 23 C13.99 23.33 14.98 23.66 16 24 C17.6875 26.0625 17.6875 26.0625 19 28 C15.27077313 28 14.8272058 27.25955139 12.25 24.6875 C6.90337043 19.16297887 0.07455197 11.32401426 -0.0625 3.375 C-0.041875 2.26125 -0.02125 1.1475 0 0 Z " fill="#B5ADB1" transform="translate(276,78)"/>
<path d="M0 0 C-1.08667969 0.56267578 -1.08667969 0.56267578 -2.1953125 1.13671875 C-14.04507148 7.40919117 -21.13952251 14.30875321 -26 27 C-26.66 26.67 -27.32 26.34 -28 26 C-23.4999712 14.17694296 -16.53352711 6.40640265 -5.6875 0.0625 C-3 -1 -3 -1 0 0 Z " fill="#B3ABAB" transform="translate(744,56)"/>
<path d="M0 0 C0 3.52938061 -0.74833975 4.37789363 -2.6875 7.25 C-6.74059674 13.73880571 -8.80840133 20.72699557 -11 28 C-12.125 26.38671875 -12.125 26.38671875 -13 24 C-10.93112211 15.21902396 -6.40928827 6.40928827 0 0 Z " fill="#BEB7B9" transform="translate(351,79)"/>
<path d="M0 0 C0 0.66 0 1.32 0 2 C-1.35931641 2.03867187 -1.35931641 2.03867187 -2.74609375 2.078125 C-10.40086781 2.43453776 -16.28966672 3.29490801 -23 7 C-24.175625 7.5775 -25.35125 8.155 -26.5625 8.75 C-27.7690625 9.36875 -27.7690625 9.36875 -29 10 C-28 7 -28 7 -25.92578125 5.68359375 C-23.29479657 4.42905846 -20.65953403 3.19290927 -18 2 C-16.576875 1.3503125 -16.576875 1.3503125 -15.125 0.6875 C-10.12082693 -0.41341808 -5.10197892 -0.14860133 0 0 Z " fill="#B8B1B2" transform="translate(386,35)"/>
<path d="M0 0 C0.66 0.99 1.32 1.98 2 3 C1.19404431 6.82828954 -0.74749638 9.38222908 -3.81640625 11.79296875 C-8.7709752 14.53171975 -14.46625628 15.94137077 -20 17 C-20.99 16.67 -21.98 16.34 -23 16 C-21.9275 15.608125 -20.855 15.21625 -19.75 14.8125 C-16.02943264 13.4056188 -12.31973668 11.97344318 -8.625 10.5 C-7.60664063 10.0978125 -6.58828125 9.695625 -5.5390625 9.28125 C-2.72643983 8.12367339 -2.72643983 8.12367339 -1 5 C-0.61500109 3.34450469 -0.27206865 1.6777567 0 0 Z " fill="#C5BEBF" transform="translate(390,39)"/>
<path d="M0 0 C0 0.66 0 1.32 0 2 C-2.55018764 3.72512694 -5.14946877 5.0699641 -7.9375 6.375 C-10.43396408 7.69965441 -12.15032439 8.87391158 -14.25 10.6875 C-17 13 -17 13 -19 13 C-19.33 13.99 -19.66 14.98 -20 16 C-20.66 16 -21.32 16 -22 16 C-19.1581464 9.00466806 -7.82347753 0 0 0 Z " fill="#CBC1C4" transform="translate(375,62)"/>
<path d="M0 0 C1.5625 1.1875 1.5625 1.1875 3 3 C2.67 4.65 2.34 6.3 2 8 C-3.28 8 -8.56 8 -14 8 C-13.67 7.34 -13.34 6.68 -13 6 C-10.03 6 -7.06 6 -4 6 C-3.34 4.68 -2.68 3.36 -2 2 C-1.34 2.33 -0.68 2.66 0 3 C0 2.01 0 1.02 0 0 Z " fill="#E2DCDC" transform="translate(285,123)"/>
<path d="M0 0 C-0.56847656 0.30292969 -1.13695312 0.60585938 -1.72265625 0.91796875 C-5.62359793 3.03450639 -9.30209694 5.15062197 -12.8125 7.875 C-16 10 -16 10 -18.19921875 9.6328125 C-19.09060547 9.31957031 -19.09060547 9.31957031 -20 9 C-18.2758698 7.70161824 -16.54546768 6.41156253 -14.8125 5.125 C-13.84957031 4.40570313 -12.88664062 3.68640625 -11.89453125 2.9453125 C-4.84306674 -1.79372842 -4.84306674 -1.79372842 0 0 Z " fill="#CEC4C6" transform="translate(367,57)"/>
<path d="M0 0 C0.66 0.33 1.32 0.66 2 1 C-4.15694628 6.82944914 -10.32288755 11.91536094 -19 13 C-19 12.34 -19 11.68 -19 11 C-17.21046815 10.16209211 -15.41830305 9.32980604 -13.625 8.5 C-12.62726563 8.0359375 -11.62953125 7.571875 -10.6015625 7.09375 C-8 6 -8 6 -6 6 C-6 5.34 -6 4.68 -6 4 C-4.03852126 2.61061923 -2.03833424 1.2739589 0 0 Z " fill="#AFA7AA" transform="translate(377,107)"/>
<path d="M0 0 C2.0622048 -0.054348 4.12482816 -0.09294961 6.1875 -0.125 C7.33605469 -0.14820312 8.48460937 -0.17140625 9.66796875 -0.1953125 C12.91740372 -0.00484152 15.08660521 0.60639873 18 2 C18 2.66 18 3.32 18 4 C17.28585937 3.83757812 16.57171875 3.67515625 15.8359375 3.5078125 C8.95355811 2.27543051 1.85222315 2.781827 -5 4 C-4.67 3.34 -4.34 2.68 -4 2 C-2.68 2 -1.36 2 0 2 C0 1.34 0 0.68 0 0 Z " fill="#B7AFB1" transform="translate(252,103)"/>
<path d="M0 0 C4.66658239 -0.42423476 7.80525342 1.05243909 12 3 C13.3303125 3.495 13.3303125 3.495 14.6875 4 C18.43123141 5.61891088 20.50235081 6.93005424 22.25 10.6875 C22.4975 11.450625 22.745 12.21375 23 13 C20.00306862 12.00102287 18.97290587 11.34869747 17 9 C17 8.34 17 7.68 17 7 C16.443125 6.81824219 15.88625 6.63648438 15.3125 6.44921875 C10.15803009 4.75137815 5.06989385 2.93577765 0 1 C0 0.67 0 0.34 0 0 Z " fill="#D9D0D3" transform="translate(285,42)"/>
<path d="M0 0 C2.95715277 0.47314444 4.58971421 1.37001676 7.1875 3 C11.28501037 5.45850622 15.29722626 5.78672228 20 6 C19.67 6.66 19.34 7.32 19 8 C12.40288662 8.71707754 7.52789447 6.58757319 2 3 C1.34 2.01 0.68 1.02 0 0 Z " fill="#9E9596" transform="translate(294,106)"/>
<path d="M0 0 C6.83367441 3.48656858 12.77885964 7.83492681 16 15 C15.34 15.66 14.68 16.32 14 17 C12 15 12 15 11.1953125 12.63671875 C9.68183844 9.29817304 7.80851534 7.97293793 4.875 5.8125 C3.21736672 4.58453654 1.58286299 3.32294637 0 2 C0 1.34 0 0.68 0 0 Z " fill="#B6AFB0" transform="translate(271,106)"/>
<path d="M0 0 C0.33 0 0.66 0 1 0 C1 2.31 1 4.62 1 7 C1.66 7 2.32 7 3 7 C3.2475 6.360625 3.495 5.72125 3.75 5.0625 C5 3 5 3 9 2 C7.02 4.31 5.04 6.62 3 9 C1.35 8.67 -0.3 8.34 -2 8 C-1.125 2.25 -1.125 2.25 0 0 Z " fill="#B0A6A8" transform="translate(340,65)"/>
<path d="M0 0 C1.73828125 1.51953125 1.73828125 1.51953125 3 3 C1.72125 2.979375 0.4425 2.95875 -0.875 2.9375 C-5.96207017 2.92941245 -10.9516147 3.40979211 -16 4 C-11.58939851 -0.41060149 -5.8799968 -0.48196695 0 0 Z " fill="#BDB4B8" transform="translate(392,58)"/>
<path d="M0 0 C0.33 0 0.66 0 1 0 C1 2.64 1 5.28 1 8 C3.64 6.02 6.28 4.04 9 2 C9.66 2.33 10.32 2.66 11 3 C10.54109375 3.38671875 10.0821875 3.7734375 9.609375 4.171875 C8.99578125 4.69265625 8.3821875 5.2134375 7.75 5.75 C7.14671875 6.26046875 6.5434375 6.7709375 5.921875 7.296875 C3.87082426 9.11447281 1.93784299 11.06215701 0 13 C0 8.71 0 4.42 0 0 Z " fill="#C6C1C1" transform="translate(666,139)"/>
<path d="M0 0 C0.66 0.33 1.32 0.66 2 1 C-1.67915561 6.63370702 -5.7957801 10.75139368 -11 15 C-11.66 14.67 -12.32 14.34 -13 14 C-12.39671875 13.40832031 -11.7934375 12.81664062 -11.171875 12.20703125 C-5.26989543 6.38766162 -5.26989543 6.38766162 0 0 Z " fill="#E7E4E4" transform="translate(225,140)"/>
<path d="M0 0 C1.65 0 3.3 0 5 0 C1.49102731 4.18423892 -2.08060535 8.19588166 -6 12 C-6.66 11.67 -7.32 11.34 -8 11 C-7.04578192 9.85073734 -6.08647955 8.70569459 -5.125 7.5625 C-4.32449219 6.60537109 -4.32449219 6.60537109 -3.5078125 5.62890625 C-2 4 -2 4 0 3 C0 2.01 0 1.02 0 0 Z " fill="#F1EAEC" transform="translate(355,44)"/>
<path d="M0 0 C0.33 0 0.66 0 1 0 C2.95021536 6.46008837 3.22262303 12.2718373 3 19 C-0.77062485 13.34406272 -0.13434477 6.58289369 0 0 Z " fill="#ACA3A6" transform="translate(273,64)"/>
<path d="M0 0 C6.52307692 2.33846154 6.52307692 2.33846154 8.9375 5.6875 C9.288125 6.450625 9.63875 7.21375 10 8 C5.17965738 7.58682778 3.09007389 5.61980085 0 2 C0 1.34 0 0.68 0 0 Z " fill="#CFC8CB" transform="translate(728,116)"/>
<path d="M0 0 C4.19936589 3.74538039 6.2766211 6.73412001 8 12 C7.5703125 14.21484375 7.5703125 14.21484375 7 16 C6.01888025 13.8967433 5.04016866 11.79236311 4.0625 9.6875 C3.51722656 8.51574219 2.97195313 7.34398438 2.41015625 6.13671875 C1 3 1 3 0 0 Z " fill="#998D8E" transform="translate(783,67)"/>
<path d="M0 0 C0.33 0.66 0.66 1.32 1 2 C-0.98 4.64 -2.96 7.28 -5 10 C-6.32 9.67 -7.64 9.34 -9 9 C-6.03 6.03 -3.06 3.06 0 0 Z " fill="#E9E3E2" transform="translate(211,155)"/>
<path d="M0 0 C4.19774486 2.46074699 5.4873812 5.4621436 7 10 C6.57421875 12.22265625 6.57421875 12.22265625 6 14 C5.18247697 12.41925436 4.37118003 10.83528777 3.5625 9.25 C3.11003906 8.36828125 2.65757812 7.4865625 2.19140625 6.578125 C1.16544602 4.35801434 0.48491397 2.38555381 0 0 Z " fill="#DAD4D4" transform="translate(782,68)"/>
<path d="M0 0 C2 1.375 2 1.375 4 3 C4 3.66 4 4.32 4 5 C4.99 5.33 5.98 5.66 7 6 C8.6875 8.0625 8.6875 8.0625 10 10 C7 10 7 10 5.17578125 8.57421875 C4.56089844 7.95160156 3.94601562 7.32898438 3.3125 6.6875 C2.37857422 5.76517578 2.37857422 5.76517578 1.42578125 4.82421875 C0 3 0 3 0 0 Z " fill="#C3B9BC" transform="translate(285,96)"/>
<path d="M0 0 C1.20628008 2.33214148 2.1654738 4.49642139 3 7 C3.66 6.67 4.32 6.34 5 6 C4.67 8.31 4.34 10.62 4 13 C2 12 2 12 0.875 8.75 C0.14536518 5.62299365 -0.19234975 3.17377095 0 0 Z " fill="#D0C5C4" transform="translate(440,200)"/>
<path d="M0 0 C1.33333333 0.66666667 2.66666667 1.33333333 4 2 C4.70125 2.309375 5.4025 2.61875 6.125 2.9375 C8 4 8 4 10 7 C10.99 7.66 11.98 8.32 13 9 C8.85935519 8.47788717 6.74547153 7.31033918 3.6875 4.5 C2.99011719 3.8709375 2.29273438 3.241875 1.57421875 2.59375 C0 1 0 1 0 0 Z " fill="#DCD4D5" transform="translate(253,119)"/>
<path d="M0 0 C0.66 0 1.32 0 2 0 C4 3 4 3 4 7 C2.68 6.67 1.36 6.34 0 6 C0 4.02 0 2.04 0 0 Z " fill="#F4F0F1" transform="translate(281,119)"/>
<path d="M0 0 C6.70459519 5.0940919 6.70459519 5.0940919 7.9375 8.875 C7.958125 9.57625 7.97875 10.2775 8 11 C6 10 6 10 5 7 C4.154375 6.154375 3.30875 5.30875 2.4375 4.4375 C1.633125 3.633125 0.82875 2.82875 0 2 C0 1.34 0 0.68 0 0 Z " fill="#C0B8BB" transform="translate(306,51)"/>
<path d="M0 0 C0.99 1.485 0.99 1.485 2 3 C2.66 2.34 3.32 1.68 4 1 C4.125 3.875 4.125 3.875 4 7 C3.34 7.66 2.68 8.32 2 9 C0.50178941 5.62902617 0 3.79557881 0 0 Z " fill="#C9BFBD" transform="translate(526,204)"/>
<path d="M0 0 C0 0.99 0 1.98 0 3 C-2.5 5.1875 -2.5 5.1875 -5 7 C-5.33 5.68 -5.66 4.36 -6 3 C-5.195625 2.690625 -4.39125 2.38125 -3.5625 2.0625 C-1.10919595 1.23664655 -1.10919595 1.23664655 0 0 Z M-7 7 C-6.01 7.495 -6.01 7.495 -5 8 C-5.99 8.495 -5.99 8.495 -7 9 C-7 8.34 -7 7.68 -7 7 Z " fill="#EDEAE8" transform="translate(190,177)"/>
<path d="M0 0 C0.99 0.33 1.98 0.66 3 1 C3 1.99 3 2.98 3 4 C2.01 4.495 2.01 4.495 1 5 C0.27840576 6.64363134 -0.39351421 8.31050386 -1 10 C-2.46726798 6.18510326 -1.43336419 3.70988378 0 0 Z " fill="#E3E0DF" transform="translate(473,98)"/>
<path d="M0 0 C0.33 0 0.66 0 1 0 C0.88541307 1.43836751 0.75790884 2.87570966 0.625 4.3125 C0.55539062 5.11300781 0.48578125 5.91351563 0.4140625 6.73828125 C0 9 0 9 -2 12 C-3.12377697 8.69564916 -2.89554742 6.9493138 -1.5625 3.75 C-1.27503906 3.04359375 -0.98757813 2.3371875 -0.69140625 1.609375 C-0.46324219 1.07828125 -0.23507812 0.5471875 0 0 Z " fill="#B3A9AC" transform="translate(341,95)"/>
<path d="M0 0 C2.63033454 2.63033454 2.77962372 4.32706204 3 8 C2.01 9.32 1.02 10.64 0 12 C0 8.04 0 4.08 0 0 Z " fill="#CEC4C7" transform="translate(395,61)"/>
<path d="M0 0 C2.64 1.98 5.28 3.96 8 6 C7.67 6.99 7.34 7.98 7 9 C5.82460004 8.07347299 4.65989423 7.13336613 3.5 6.1875 C2.52546875 5.40439453 2.52546875 5.40439453 1.53125 4.60546875 C0 3 0 3 0 0 Z " fill="#B5A2B1" transform="translate(775,59)"/>
<path d="M0 0 C-3.03525486 2.02350324 -4.19426202 2.32124018 -7.6875 2.625 C-8.49574219 2.69976562 -9.30398438 2.77453125 -10.13671875 2.8515625 C-10.75160156 2.90054688 -11.36648438 2.94953125 -12 3 C-11 1 -11 1 -7.6875 -0.1875 C-4.42437937 -0.90649268 -3.00717118 -1.20286847 0 0 Z " fill="#F3EBEC" transform="translate(747,58)"/>
<path d="M0 0 C4.66154042 1.49835228 5.86610751 4.88463591 8 9 C4.20620942 7.50958227 2.31656242 5.30937488 0 2 C0 1.34 0 0.68 0 0 Z " fill="#9B9698" transform="translate(721,110)"/>
<path d="M0 0 C0.99 0 1.98 0 3 0 C5.1875 3 5.1875 3 7 6 C6.67 6.66 6.34 7.32 6 8 C1.125 3.375 1.125 3.375 0 0 Z " fill="#A59FA2" transform="translate(717,104)"/>
<path d="M0 0 C0 0.33 0 0.66 0 1 C-1.98 1 -3.96 1 -6 1 C-6 0.34 -6 -0.32 -6 -1 C-7.98 -1 -9.96 -1 -12 -1 C-12 -1.33 -12 -1.66 -12 -2 C-6.93395388 -3.3268216 -4.47171108 -2.66173278 0 0 Z " fill="#C4BBBC" transform="translate(766,56)"/>
<path d="M0 0 C-0.33 0.99 -0.66 1.98 -1 3 C-2.84765625 3.73046875 -2.84765625 3.73046875 -5.0625 4.1875 C-5.79597656 4.34605469 -6.52945312 4.50460938 -7.28515625 4.66796875 C-8.13400391 4.83232422 -8.13400391 4.83232422 -9 5 C-9 4.34 -9 3.68 -9 3 C-2.25 0 -2.25 0 0 0 Z " fill="#B6AEAF" transform="translate(367,115)"/>
<path d="M0 0 C1.73662334 3.22515763 2.8905928 6.51329166 4 10 C3.01 9.67 2.02 9.34 1 9 C-0.4783226 6.04335481 -0.06032783 3.25770263 0 0 Z " fill="#BFB6B9" transform="translate(276,78)"/>
<path d="M0 0 C1 3 1 3 0 6 C-0.66 6 -1.32 6 -2 6 C-2 6.66 -2 7.32 -2 8 C-2.99 8.33 -3.98 8.66 -5 9 C-3.50163895 5.88801935 -1.80066242 2.9465385 0 0 Z " fill="#E4DEDE" transform="translate(724,70)"/>
<path d="M0 0 C0.33 0 0.66 0 1 0 C0.67 3.96 0.34 7.92 0 12 C-0.33 12 -0.66 12 -1 12 C-2.42857143 3.42857143 -2.42857143 3.42857143 0 0 Z " fill="#C1B7BB" transform="translate(275,58)"/>
<path d="M0 0 C2 0 2 0 3.625 1.1875 C5.42149467 3.55560662 5.23521845 5.09897251 5 8 C2.21611025 6.29374499 1.14615794 5.52373261 0.25 2.3125 C0.1675 1.549375 0.085 0.78625 0 0 Z " fill="#D9D0D3" transform="translate(247,109)"/>
<path d="M0 0 C3.48539917 0.64544429 6.02819057 2.10134397 9 4 C7.3125 4.8125 7.3125 4.8125 5 5 C2.25 2.5625 2.25 2.5625 0 0 Z " fill="#ACA1A6" transform="translate(294,106)"/>
<path d="M0 0 C2.64 0.66 5.28 1.32 8 2 C8.33 3.32 8.66 4.64 9 6 C5.88802644 4.50164236 2.91164984 2.86022073 0 1 C0 0.67 0 0.34 0 0 Z " fill="#EAE0E4" transform="translate(292,103)"/>
</svg>
