<?xml version="1.0" encoding="UTF-8"?>
<svg version="1.1" xmlns="http://www.w3.org/2000/svg" width="849" height="294">
<path d="M0 0 C8.58 0 17.16 0 26 0 C27.98584953 5.29559874 29.71894352 10.29194935 31.06542969 15.73168945 C31.24969513 16.46001984 31.43396057 17.18835022 31.62380981 17.93875122 C32.22747876 20.32919786 32.82466725 22.72121304 33.421875 25.11328125 C33.84879381 26.80847297 34.27615034 28.5035545 34.70391846 30.1985321 C35.82969027 34.66366259 36.95011047 39.13011801 38.06921387 43.59692383 C39.184036 48.04381878 40.30289914 52.48969561 41.421875 56.93554688 C41.64018227 57.80296949 41.85848953 58.67039211 42.08341217 59.56410027 C42.73778284 62.16385672 43.39230596 64.76357474 44.046875 67.36328125 C44.26067307 68.21257328 44.47447113 69.06186531 44.69474792 69.93689346 C47.46932434 80.95650957 50.24981418 91.97450233 53.078125 102.98046875 C53.50723175 104.66490837 53.50723175 104.66490837 53.94500732 106.38337708 C54.20453186 107.38761215 54.4640564 108.39184723 54.73144531 109.42651367 C54.95423157 110.29346359 55.17701782 111.16041351 55.40655518 112.05363464 C55.82893468 113.98564907 55.82893468 113.98564907 57 115 C57.18410934 114.30479248 57.36821869 113.60958496 57.5579071 112.89331055 C62.84038607 92.94926765 68.13650896 73.00887856 73.44790649 53.0725174 C73.98130532 51.07017843 74.51447951 49.06777977 75.04760742 47.06536865 C76.89201313 40.14030207 78.74221727 33.21684478 80.60293579 26.29614258 C81.15807985 24.22830352 81.71129129 22.15994462 82.26254272 20.09106445 C83.02261157 17.24024861 83.78961129 14.39139101 84.55859375 11.54296875 C84.77868103 10.71161911 84.99876831 9.88026947 85.2255249 9.02372742 C86.15852973 5.59506476 87.01254404 2.98118395 89 0 C91.52197266 -0.34057617 91.52197266 -0.34057617 94.6640625 -0.29296875 C95.78554688 -0.28330078 96.90703125 -0.27363281 98.0625 -0.26367188 C99.238125 -0.23853516 100.41375 -0.21339844 101.625 -0.1875 C103.40003906 -0.16719727 103.40003906 -0.16719727 105.2109375 -0.14648438 C108.14107539 -0.11103916 111.07031459 -0.06162769 114 0 C117.10010556 7.58812705 119.07427404 15.45417832 121.1328125 23.37109375 C121.53253708 24.89496992 121.93268259 26.41873572 122.33322144 27.94239807 C123.38876335 31.96141753 124.43957345 35.98165774 125.48907471 40.0022583 C130.41748072 58.87532398 135.3517459 77.74728203 140.45556259 96.57380867 C140.85266128 98.03948504 141.24866301 99.50545909 141.64352798 100.97173882 C142.18582225 102.9834988 142.73255997 104.99399339 143.28076172 107.00415039 C143.58972382 108.14235733 143.89868591 109.28056427 144.2170105 110.45326233 C144.75526569 112.911294 144.75526569 112.911294 146 114 C147.71462327 107.64751596 149.42218096 101.29315843 151.125 94.9375 C151.38788818 93.9563623 151.65077637 92.97522461 151.92163086 91.96435547 C157.21919215 72.16190867 162.28560302 52.30305209 167.27783203 32.42163086 C174.91750704 2.08249296 174.91750704 2.08249296 177 0 C178.92667507 -0.08748207 180.85651861 -0.10697334 182.78515625 -0.09765625 C183.95498047 -0.09443359 185.12480469 -0.09121094 186.33007812 -0.08789062 C187.56177734 -0.07951172 188.79347656 -0.07113281 190.0625 -0.0625 C191.91584961 -0.05573242 191.91584961 -0.05573242 193.80664062 -0.04882812 C196.87114117 -0.03699608 199.93554721 -0.02051173 203 0 C201.56502933 7.97199617 199.51397116 15.71359715 197.32421875 23.5078125 C196.95860248 24.81981649 196.59335201 26.13192246 196.22843933 27.44412231 C195.45375607 30.22765244 194.67703589 33.01060207 193.89862061 35.79309082 C192.05391497 42.38804701 190.22036636 48.98610774 188.38668823 55.58413696 C187.97461887 57.06677569 187.56242774 58.54938057 187.15011597 60.0319519 C183.33383596 73.7557332 179.58534319 87.49718496 175.875 101.25 C175.34888892 103.19704671 174.82268611 105.14406864 174.29638672 107.09106445 C172.43230966 113.98869246 170.56941809 120.88663797 168.71044922 127.78564453 C167.58418886 131.96301518 166.44896179 136.13789349 165.3125 140.3125 C164.99716309 141.48780273 164.68182617 142.66310547 164.35693359 143.87402344 C164.07027832 144.92235352 163.78362305 145.97068359 163.48828125 147.05078125 C163.24634033 147.94450439 163.00439941 148.83822754 162.75512695 149.7590332 C162 152 162 152 160 155 C157.29443359 155.34057617 157.29443359 155.34057617 153.8984375 155.29296875 C152.68671875 155.28330078 151.475 155.27363281 150.2265625 155.26367188 C148.95554687 155.23853516 147.68453125 155.21339844 146.375 155.1875 C145.09625 155.17396484 143.8175 155.16042969 142.5 155.14648438 C139.33291718 155.11103196 136.16666459 155.06161441 133 155 C130.12654575 147.84788255 128.12532272 140.51623399 126.12109375 133.08203125 C125.74898324 131.71285284 125.37653918 130.34376505 125.00378418 128.97476196 C124.21688287 126.08183639 123.43239296 123.18827236 122.64987183 120.29415894 C121.43470249 115.79992153 120.21386206 111.30723636 118.99243164 106.81469727 C115.51823137 94.02984845 112.0597244 81.2408271 108.625 68.4453125 C108.38596451 67.55597519 108.14692902 66.66663788 107.90065002 65.75035095 C106.8390213 61.80007988 105.78065834 57.84901525 104.73022461 53.89575195 C104.37103384 52.55417168 104.01174772 51.21261693 103.65234375 49.87109375 C103.35320068 48.74630615 103.05405762 47.62151855 102.74584961 46.46264648 C102.23492322 44.07766132 102.23492322 44.07766132 101 43 C94.93533183 64.2733301 89.00322083 85.5777014 83.25 106.9375 C76.27645613 132.81078962 76.27645613 132.81078962 72.75 144.9375 C72.47446289 145.88939209 72.19892578 146.84128418 71.91503906 147.82202148 C70.12987086 153.87012914 70.12987086 153.87012914 69 155 C67.00035018 155.08758003 64.9976389 155.10696576 62.99609375 155.09765625 C61.78115234 155.09443359 60.56621094 155.09121094 59.31445312 155.08789062 C58.03505859 155.07951172 56.75566406 155.07113281 55.4375 155.0625 C54.15423828 155.05798828 52.87097656 155.05347656 51.54882812 155.04882812 C48.36583978 155.03699545 45.18294238 155.02051068 42 155 C39.1742892 147.9542773 37.19632032 140.75893601 35.2265625 133.43359375 C34.86309448 132.09330576 34.4992549 130.75311849 34.1350708 129.4130249 C33.36231904 126.56696584 32.59182607 123.72030936 31.82318115 120.87313843 C30.61540675 116.39978232 29.40236139 111.92786756 28.18798828 107.45629883 C27.98561239 106.71109828 27.7832365 105.96589773 27.57472801 105.19811535 C27.1657646 103.69229501 26.75677757 102.18648109 26.34776688 100.6806736 C25.73381981 98.41983054 25.12033567 96.15886225 24.50692749 93.89787292 C21.26402051 81.94852071 17.98405276 70.0096707 14.67630005 58.07809448 C13.88339408 55.21778066 13.09182484 52.35709976 12.30053711 49.49633789 C10.22796692 42.00770188 8.1507561 34.52054324 6.04199219 27.04200745 C5.44751203 24.9325774 4.85542756 22.82249075 4.26416016 20.7121582 C3.57535961 18.25731054 2.88150574 15.80387163 2.18115234 13.35229492 C1.88805176 12.30533447 1.59495117 11.25837402 1.29296875 10.1796875 C1.0405542 9.29007324 0.78813965 8.40045898 0.52807617 7.48388672 C0 5 0 5 0 0 Z " fill="#11AC35" transform="translate(407,97)"/>
<path d="M0 0 C0.94082932 0.00359528 1.88165863 0.00719055 2.85099792 0.01089478 C4.3288829 0.01067574 4.3288829 0.01067574 5.83662415 0.01045227 C9.11023623 0.01115185 12.3837922 0.01894632 15.65739441 0.02676392 C17.92040984 0.02862794 20.18342567 0.03005191 22.44644165 0.03105164 C28.41577764 0.03487807 34.38508948 0.04470942 40.35441589 0.05575562 C46.44043145 0.06596705 52.52645089 0.07054868 58.61247253 0.07559204 C70.56365676 0.08633157 82.51481667 0.10392938 94.46598816 0.12442017 C94.46598816 7.71442017 94.46598816 15.30442017 94.46598816 23.12442017 C69.38598816 23.12442017 44.30598816 23.12442017 18.46598816 23.12442017 C18.46598816 37.31442017 18.46598816 51.50442017 18.46598816 66.12442017 C42.22598816 66.12442017 65.98598816 66.12442017 90.46598816 66.12442017 C90.46598816 73.71442017 90.46598816 81.30442017 90.46598816 89.12442017 C66.70598816 89.12442017 42.94598816 89.12442017 18.46598816 89.12442017 C18.46598816 102.98442017 18.46598816 116.84442017 18.46598816 131.12442017 C43.54598816 131.12442017 68.62598816 131.12442017 94.46598816 131.12442017 C94.46598816 139.04442017 94.46598816 146.96442017 94.46598816 155.12442017 C81.31449486 155.14696895 68.1630143 155.16533395 55.01150608 155.17623234 C48.90542447 155.18146172 42.79935672 155.18856037 36.69328308 155.19985962 C30.80593669 155.21068653 24.91860367 155.21669658 19.03124809 155.21929741 C16.77966539 155.22115201 14.52808347 155.22477329 12.27650642 155.23015022 C9.13465389 155.23735805 5.99285733 155.23841122 2.85099792 155.23794556 C1.91016861 155.24154083 0.96933929 155.24513611 0 155.24884033 C-6.41995968 155.23847233 -6.41995968 155.23847233 -7.53401184 154.12442017 C-7.63288996 152.15244478 -7.6603344 150.17687577 -7.66099548 148.2024231 C-7.66381531 146.91512802 -7.66663513 145.62783295 -7.66954041 144.30152893 C-7.66759581 142.86163316 -7.66554762 141.42173753 -7.66340637 139.98184204 C-7.66476035 138.47594663 -7.66654027 136.97005155 -7.66871643 135.4641571 C-7.67329112 131.36303209 -7.67150106 127.26193213 -7.66833735 123.16080666 C-7.66581393 118.87845413 -7.66815123 114.59610382 -7.66972351 110.31375122 C-7.67154526 103.12091688 -7.66913876 95.92809279 -7.66438293 88.73526001 C-7.6589403 80.40725683 -7.66070296 72.07927813 -7.66620934 63.75127554 C-7.67074032 56.61414171 -7.67139109 49.47701527 -7.66877067 42.33988047 C-7.66720781 38.07143661 -7.66701437 33.80300428 -7.67030716 29.53456116 C-7.67318565 25.52258083 -7.67121059 21.51063221 -7.6654129 17.49865532 C-7.66408519 16.02197256 -7.66447962 14.54528715 -7.66667557 13.06860542 C-7.66938658 11.0612103 -7.66539268 9.05380938 -7.66099548 7.04641724 C-7.66061846 5.92036324 -7.66024143 4.79430923 -7.65985298 3.63413239 C-7.40944544 -1.35986919 -4.26777265 0.0068923 0 0 Z " fill="#11AC35" transform="translate(54.53401184082031,96.87557983398438)"/>
<path d="M0 0 C8.25 0 16.5 0 25 0 C25.33 29.37 25.66 58.74 26 89 C43.65740739 72.36848564 43.65740739 72.36848564 59.47265625 53.375 C63.34153963 48.07797981 66.8402753 44.51977209 73.52929688 43.41943359 C82.37395608 42.86149637 91.17141561 43.28508349 100 44 C98.37915347 47.44401787 96.57463755 49.60671518 93.8125 52.25 C90.91420356 55.0789592 88.1301419 57.92020855 85.5 61 C82.25075327 64.79078785 78.74813968 68.26878424 75.1953125 71.7734375 C72.56965655 74.43646934 70.14020795 77.23255606 67.70703125 80.0703125 C64.94706074 83.19027916 61.97658166 86.08890005 59 89 C59.42047607 89.66064453 59.84095215 90.32128906 60.27416992 91.00195312 C60.85787354 91.91912109 61.44157715 92.83628906 62.04296875 93.78125 C62.68540527 94.79058594 63.3278418 95.79992187 63.98974609 96.83984375 C65.25664321 98.83142941 66.52271029 100.82354356 67.78759766 102.81640625 C74.09615888 112.75356943 80.41543933 122.67793275 86.97265625 132.453125 C87.38318741 133.06551025 87.79371857 133.67789551 88.21669006 134.30883789 C90.21549954 137.28720572 92.22107263 140.26075502 94.2355957 143.22851562 C94.959646 144.30294922 95.68369629 145.37738281 96.4296875 146.484375 C97.07147949 147.43022461 97.71327148 148.37607422 98.37451172 149.35058594 C99.90747152 151.84918609 101.00807644 154.24805118 102 157 C97.58355402 157.11608127 93.16749983 157.1872132 88.75 157.25 C87.49574219 157.28351563 86.24148437 157.31703125 84.94921875 157.3515625 C83.74394531 157.36445313 82.53867188 157.37734375 81.296875 157.390625 C80.18666992 157.41157227 79.07646484 157.43251953 77.93261719 157.45410156 C74.3156133 156.89402604 73.2546745 155.81610761 71 153 C69.60805871 150.89468879 68.2915717 148.78996359 67 146.625 C61.69544278 137.92578253 56.03864953 129.46737487 50.375 121 C49.91399902 120.31045227 49.45299805 119.62090454 48.97802734 118.91046143 C46.32176695 114.9382371 43.66226198 110.96820417 41 107 C39.34421395 108.37982171 37.69639644 109.77014094 36.08618164 111.20288086 C34 113 34 113 31.78686523 114.54907227 C27.83014182 117.66369289 26.206158 119.86776042 25.28955078 124.90185547 C24.93069869 129.58068727 24.98870772 134.24910508 25.0625 138.9375 C25.06322048 141.37009461 25.05303456 143.80244144 25.04063416 146.23500061 C25.03703324 147.7418774 25.04338226 149.24881682 25.06056213 150.75559998 C25.07578506 152.5037836 25.04280961 154.25227432 25 156 C23.31483046 157.68516954 21.21232212 157.13008019 18.90625 157.1328125 C17.87628906 157.13410156 16.84632813 157.13539063 15.78515625 157.13671875 C14.15900391 157.13091797 14.15900391 157.13091797 12.5 157.125 C11.41589844 157.12886719 10.33179688 157.13273438 9.21484375 157.13671875 C8.18488281 157.13542969 7.15492188 157.13414062 6.09375 157.1328125 C5.14177734 157.13168457 4.18980469 157.13055664 3.20898438 157.12939453 C1 157 1 157 0 156 C-0.09674566 153.98771955 -0.12187008 151.97198631 -0.12025452 149.9573822 C-0.12162918 148.64339951 -0.12300385 147.32941681 -0.12442017 145.97561646 C-0.12088054 144.50579812 -0.11724573 143.03598 -0.11352539 141.56616211 C-0.11324353 140.02908836 -0.11340123 138.49201447 -0.1139679 136.9549408 C-0.11425591 132.7691714 -0.10835852 128.58343041 -0.10139394 124.39766765 C-0.09516109 120.02809844 -0.09455666 115.65852865 -0.09336853 111.28895569 C-0.09025501 103.00872953 -0.08204135 94.7285165 -0.07201904 86.44829613 C-0.06085854 77.02402841 -0.05534761 67.59976008 -0.05032361 58.1754874 C-0.03985875 38.7836506 -0.02205851 19.39182684 0 0 Z " fill="#12AB36" transform="translate(168,95)"/>
<path d="M0 0 C12.67630801 9.80002616 21.4841499 22.79562101 23.59765625 38.95703125 C25.50795287 58.28707928 20.49543515 74.18800484 8.265625 89.1171875 C-2.12377808 100.52777123 -16.59358082 105.94317522 -31.66796875 107.33984375 C-48.40534142 107.80425476 -62.78922536 102.35030683 -75.45703125 91.4921875 C-81.64205985 85.43066945 -86.80341271 78.07640171 -90 70 C-90.44666016 68.91138672 -90.44666016 68.91138672 -90.90234375 67.80078125 C-95.5862855 54.05114579 -94.50144335 36.3879462 -88.78125 23.1875 C-85.25772963 16.14045926 -80.54291895 10.5527121 -75 5 C-74.43539063 4.42378906 -73.87078125 3.84757813 -73.2890625 3.25390625 C-54.03442494 -14.82666804 -21.03763993 -14.55729549 0 0 Z M-61 25 C-67.23986965 34.61153516 -69.57944625 45.25331868 -67.53515625 56.57421875 C-65.19515634 65.39421841 -60.97375372 73.5864804 -53.2578125 78.75 C-44.47361193 83.61322523 -36.11207416 85.50620364 -26.21484375 83.41015625 C-17.75942218 80.82952829 -10.8142893 75.78752663 -6.30078125 68.109375 C-1.25094904 57.28623891 0.19706518 44.79912173 -3.90234375 33.33984375 C-8.40175835 23.74856495 -14.52741496 17.73840136 -24.25 13.625 C-38.63209244 11.22798459 -51.23876433 13.56933771 -61 25 Z " fill="#12AC36" transform="translate(373,147)"/>
<path d="M0 0 C7.42860673 5.99678911 12.50676102 14.51966877 14 24 C14.66 24 15.32 24 16 24 C16.05382106 26.62527189 16.09358313 29.24944713 16.125 31.875 C16.14175781 32.62136719 16.15851563 33.36773437 16.17578125 34.13671875 C16.1933959 36.09194461 16.10320189 38.04742021 16 40 C15.01 40.99 15.01 40.99 14 42 C13.37817304 43.33692796 12.80009731 44.69449485 12.25 46.0625 C7.80080715 56.23208365 1.42704738 64.5569389 -8.5 69.875 C-20.51640554 73.73741607 -30.89329648 74.08249305 -43 70 C-46.25 68.25 -46.25 68.25 -49 66 C-49.62261719 65.50628906 -50.24523437 65.01257813 -50.88671875 64.50390625 C-58.41189992 58.2974235 -65.44735475 50.94532226 -67 41 C-68.07009241 28.30615152 -67.44772482 17.18315371 -58.9453125 7.09765625 C-42.62177007 -10.50423588 -19.81973762 -14.56143988 0 0 Z " fill="#446976" transform="translate(815,58)"/>
<path d="M0 0 C2.371875 0.020625 4.74375 0.04125 7.1875 0.0625 C7.1875 7.3225 7.1875 14.5825 7.1875 22.0625 C-1.9375 22.875 -1.9375 22.875 -4.77783203 23.10864258 C-12.50285448 23.86140036 -17.64427427 26.05618362 -22.8125 32.0625 C-26.15813708 37.91736489 -26.93477421 42.3186445 -27.00195312 49.01831055 C-27.01439308 50.05553253 -27.01439308 50.05553253 -27.02708435 51.1137085 C-27.04444 52.61037131 -27.05961893 54.10706062 -27.07286072 55.60376549 C-27.09392956 57.96937951 -27.12094544 60.33485937 -27.14953613 62.70039368 C-27.21928047 68.57155667 -27.27888495 74.44281444 -27.33856201 80.31408691 C-27.38941257 85.28226898 -27.44419022 90.25037638 -27.50437927 95.21845436 C-27.53102536 97.55452408 -27.55179085 99.89060057 -27.5723877 102.22673035 C-27.58898179 103.64944802 -27.60585283 105.0721625 -27.62304688 106.49487305 C-27.64183899 108.36540596 -27.64183899 108.36540596 -27.66101074 110.27372742 C-27.8125 113.0625 -27.8125 113.0625 -28.8125 114.0625 C-30.50808726 114.16182153 -32.20775747 114.19330007 -33.90625 114.1953125 C-34.93621094 114.19660156 -35.96617187 114.19789063 -37.02734375 114.19921875 C-38.65349609 114.19341797 -38.65349609 114.19341797 -40.3125 114.1875 C-41.39660156 114.19136719 -42.48070312 114.19523437 -43.59765625 114.19921875 C-44.62761719 114.19792969 -45.65757812 114.19664062 -46.71875 114.1953125 C-47.67072266 114.19418457 -48.62269531 114.19305664 -49.60351562 114.19189453 C-51.8125 114.0625 -51.8125 114.0625 -52.8125 113.0625 C-52.9081161 111.60768505 -52.93438351 110.14824514 -52.93275452 108.69029236 C-52.93481651 107.27465248 -52.93481651 107.27465248 -52.93692017 105.83041382 C-52.93332489 104.78672638 -52.92972961 103.74303894 -52.92602539 102.66772461 C-52.92617142 101.57517868 -52.92631744 100.48263275 -52.9264679 99.35697937 C-52.92576822 95.72624767 -52.91797329 92.09556654 -52.91015625 88.46484375 C-52.90829226 85.95520557 -52.90686827 83.44556702 -52.90586853 80.93592834 C-52.90243348 74.99315407 -52.89454273 69.05039616 -52.88451904 63.10763031 C-52.87226253 55.68048075 -52.86687792 48.25332895 -52.86132812 40.82617188 C-52.85058811 27.57160345 -52.83299008 14.31705694 -52.8125 1.0625 C-44.8925 1.0625 -36.9725 1.0625 -28.8125 1.0625 C-28.4825 4.3625 -28.1525 7.6625 -27.8125 11.0625 C-26.636875 9.969375 -25.46125 8.87625 -24.25 7.75 C-16.90240695 1.32410148 -9.61910156 -0.1187284 0 0 Z " fill="#11AD36" transform="translate(726.8125,137.9375)"/>
<path d="M0 0 C11.60923769 4.09030136 22.4541314 14.03723649 28 25 C33.7469729 38.29801174 35.3671903 52.97045369 29.9296875 66.703125 C27.75094623 71.38947414 25.79004831 75.60497584 21 78 C12.13074782 78.35477009 4.0857224 72.19453697 -2.3125 66.625 C-11.62756103 57.81185985 -18.75394166 47.20549996 -19.3359375 34.07421875 C-19.56358744 20.49902732 -18.50317787 10.39919179 -9 0 C-5.90520725 -1.54739637 -3.22205309 -0.83689691 0 0 Z " fill="#E7C84D" transform="translate(305,37)"/>
<path d="M0 0 C3.97915159 -0.02886984 7.95827653 -0.04675406 11.9375 -0.0625 C13.07380859 -0.07087891 14.21011719 -0.07925781 15.38085938 -0.08789062 C16.46044922 -0.09111328 17.54003906 -0.09433594 18.65234375 -0.09765625 C20.15269165 -0.10551147 20.15269165 -0.10551147 21.68334961 -0.11352539 C24 0 24 0 25 1 C25.0977394 2.43981214 25.12631713 3.88438903 25.12698364 5.32751465 C25.12980347 6.26141525 25.13262329 7.19531586 25.13552856 8.15751648 C25.13350433 9.19028214 25.1314801 10.22304779 25.12939453 11.28710938 C25.13114685 12.36829544 25.13289917 13.44948151 25.13470459 14.56343079 C25.13912558 18.15688659 25.13618424 21.75029365 25.1328125 25.34375 C25.13348547 27.82857269 25.13445543 30.31339531 25.13571167 32.79821777 C25.13737858 38.68313375 25.13386577 44.56803187 25.1285609 50.45294523 C25.12480608 55.15369598 25.12613367 59.85442581 25.13037109 64.55517578 C25.13615037 71.0207429 25.13708453 77.48628971 25.13381577 83.95185852 C25.13314625 86.42393498 25.13397577 88.8960123 25.13629532 91.36808777 C25.13882039 94.81637898 25.1349833 98.26460435 25.12939453 101.71289062 C25.13141876 102.74565628 25.13344299 103.77842194 25.13552856 104.84248352 C25.13129883 106.24333443 25.13129883 106.24333443 25.12698364 107.67248535 C25.12660662 108.48881691 25.12622959 109.30514847 25.12584114 110.14621735 C25 112 25 112 24 113 C22.30441274 113.09932153 20.60474253 113.13080007 18.90625 113.1328125 C17.87628906 113.13410156 16.84632813 113.13539063 15.78515625 113.13671875 C14.15900391 113.13091797 14.15900391 113.13091797 12.5 113.125 C11.41589844 113.12886719 10.33179688 113.13273437 9.21484375 113.13671875 C8.18488281 113.13542969 7.15492188 113.13414062 6.09375 113.1328125 C5.14177734 113.13168457 4.18980469 113.13055664 3.20898438 113.12939453 C1 113 1 113 0 112 C-0.0956161 110.54518505 -0.12188351 109.08574514 -0.12025452 107.62779236 C-0.12231651 106.21215248 -0.12231651 106.21215248 -0.12442017 104.76791382 C-0.12082489 103.72422638 -0.11722961 102.68053894 -0.11352539 101.60522461 C-0.11367142 100.51267868 -0.11381744 99.42013275 -0.1139679 98.29447937 C-0.11326822 94.66374767 -0.10547329 91.03306654 -0.09765625 87.40234375 C-0.09579226 84.89270557 -0.09436827 82.38306702 -0.09336853 79.87342834 C-0.08993348 73.93065407 -0.08204273 67.98789616 -0.07201904 62.04513031 C-0.05976253 54.61798075 -0.05437792 47.19082895 -0.04882812 39.76367188 C-0.03808811 26.50910527 -0.02120082 13.25455379 0 0 Z " fill="#10AD34" transform="translate(624,139)"/>
<path d="M0 0 C0.82757813 -0.01675781 1.65515625 -0.03351562 2.5078125 -0.05078125 C5.41358774 0.39515455 6.75539951 1.30123464 8.875 3.3125 C11.88788472 12.35115417 9.98405273 23.59452918 6.04589844 32.10400391 C4.13183257 35.92307855 2.04235782 39.63096069 -0.125 43.3125 C-0.785 43.3125 -1.445 43.3125 -2.125 43.3125 C-2.393125 43.89386719 -2.66125 44.47523437 -2.9375 45.07421875 C-9.47981898 57.40562919 -22.56676009 63.74307937 -35.125 68.3125 C-38.50282467 69.15442026 -41.70928111 69.49798899 -45.1875 69.5625 C-46.02410156 69.58828125 -46.86070312 69.6140625 -47.72265625 69.640625 C-50.79131795 69.22149072 -52.04065899 68.61847908 -54.125 66.3125 C-56.58071747 52.95000975 -51.50013556 39.34505974 -44.125 28.3125 C-34.37628498 14.66429898 -17.95039261 0.08440623 0 0 Z " fill="#FDC341" transform="translate(406.125,54.6875)"/>
<path d="M0 0 C6.89021404 5.38893163 13.05591967 11.9177601 16.6875 19.9375 C17.0625 23.25 17.0625 23.25 16.6875 25.9375 C13.32121858 29.30378142 9.02710057 29.10698069 4.4375 29.1875 C-0.99915192 29.12911985 -5.3364097 28.05830601 -10.3125 25.9375 C-10.99054688 25.67066406 -11.66859375 25.40382812 -12.3671875 25.12890625 C-21.42868367 21.16229801 -26.69346209 13.93941674 -31.4765625 5.55078125 C-32.3125 2.9375 -32.3125 2.9375 -31.6328125 0.18359375 C-30.3125 -2.0625 -30.3125 -2.0625 -27.5625 -3.3125 C-17.83791214 -5.55663566 -8.61194478 -5.73685966 0 0 Z " fill="#A8BC53" transform="translate(287.3125,106.0625)"/>
<path d="M0 0 C2.12241002 3.18361503 2.55821646 5.20204272 2.42578125 9.0078125 C1.82501409 11.81874143 0.32862832 13.30165852 -1.98828125 14.921875 C-7.16315695 17.69520644 -12.82568729 19.31100998 -18.40234375 21.078125 C-30.13965699 24.96894707 -39.26398364 30.86604449 -48.0625 39.53125 C-50 41 -50 41 -54 41 C-56.16535379 34.14304632 -52.06914603 28.01740667 -49 22 C-42.81217267 11.45658512 -32.01433945 3.30944656 -20.4375 -0.37890625 C-13.6265239 -2.11439535 -6.44203608 -3.59996134 0 0 Z " fill="#FDB13D" transform="translate(408,32)"/>
<path d="M0 0 C1.02996094 -0.00128906 2.05992187 -0.00257812 3.12109375 -0.00390625 C4.74724609 0.00189453 4.74724609 0.00189453 6.40625 0.0078125 C7.49035156 0.00394531 8.57445312 0.00007813 9.69140625 -0.00390625 C10.72136719 -0.00261719 11.75132812 -0.00132813 12.8125 0 C14.24045898 0.00169189 14.24045898 0.00169189 15.69726562 0.00341797 C17.90625 0.1328125 17.90625 0.1328125 18.90625 1.1328125 C19.00608058 3.12038278 19.03705753 5.1114877 19.0390625 7.1015625 C19.04099609 8.91720703 19.04099609 8.91720703 19.04296875 10.76953125 C19.03910156 12.04441406 19.03523437 13.31929687 19.03125 14.6328125 C19.03705078 16.54513672 19.03705078 16.54513672 19.04296875 18.49609375 C19.04167969 19.70652344 19.04039062 20.91695312 19.0390625 22.1640625 C19.03793457 23.28361328 19.03680664 24.40316406 19.03564453 25.55664062 C18.90625 28.1328125 18.90625 28.1328125 17.90625 29.1328125 C16.21066274 29.23213403 14.51099253 29.26361257 12.8125 29.265625 C11.78253906 29.26691406 10.75257813 29.26820312 9.69140625 29.26953125 C8.06525391 29.26373047 8.06525391 29.26373047 6.40625 29.2578125 C5.32214844 29.26167969 4.23804688 29.26554687 3.12109375 29.26953125 C2.09113281 29.26824219 1.06117188 29.26695313 0 29.265625 C-0.95197266 29.26449707 -1.90394531 29.26336914 -2.88476562 29.26220703 C-5.09375 29.1328125 -5.09375 29.1328125 -6.09375 28.1328125 C-6.19358058 26.14524222 -6.22455753 24.1541373 -6.2265625 22.1640625 C-6.22785156 20.95363281 -6.22914063 19.74320313 -6.23046875 18.49609375 C-6.22660156 17.22121094 -6.22273437 15.94632813 -6.21875 14.6328125 C-6.22261719 13.35792969 -6.22648438 12.08304688 -6.23046875 10.76953125 C-6.22917969 9.55910156 -6.22789062 8.34867188 -6.2265625 7.1015625 C-6.22543457 5.98201172 -6.22430664 4.86246094 -6.22314453 3.70898438 C-5.99590363 -0.81525335 -4.03329869 0.00477879 0 0 Z " fill="#0FAD34" transform="translate(630.09375,96.8671875)"/>
<path d="M0 0 C0.82757813 -0.01675781 1.65515625 -0.03351562 2.5078125 -0.05078125 C5.41358774 0.39515455 6.75539951 1.30123464 8.875 3.3125 C11.88788472 12.35115417 9.98405273 23.59452918 6.04589844 32.10400391 C4.13183257 35.92307855 2.04235782 39.63096069 -0.125 43.3125 C-0.785 43.3125 -1.445 43.3125 -2.125 43.3125 C-2.393125 43.89386719 -2.66125 44.47523437 -2.9375 45.07421875 C-9.47981898 57.40562919 -22.56676009 63.74307937 -35.125 68.3125 C-38.50282467 69.15442026 -41.70928111 69.49798899 -45.1875 69.5625 C-46.02410156 69.58828125 -46.86070312 69.6140625 -47.72265625 69.640625 C-50.79131795 69.22149072 -52.04065899 68.61847908 -54.125 66.3125 C-56.58071747 52.95000975 -51.50013556 39.34505974 -44.125 28.3125 C-34.37628498 14.66429898 -17.95039261 0.08440623 0 0 Z M-16.125 8.3125 C-18.11100337 9.6665932 -20.11317543 10.99707624 -22.125 12.3125 C-26.41272813 15.36372562 -30.5660114 18.58847583 -34.625 21.9375 C-35.2953125 22.48664063 -35.965625 23.03578125 -36.65625 23.6015625 C-38.55924123 25.44252966 -38.55924123 25.44252966 -38.125 29.3125 C-38.785 29.6425 -39.445 29.9725 -40.125 30.3125 C-44.40675978 33.73790782 -46.43083112 38.20352197 -48.125 43.3125 C-48.46431664 46.69027525 -48.46431664 46.69027525 -48.125 49.3125 C-48.785 49.3125 -49.445 49.3125 -50.125 49.3125 C-50.455 53.2725 -50.785 57.2325 -51.125 61.3125 C-50.465 61.3125 -49.805 61.3125 -49.125 61.3125 C-49.125 62.9625 -49.125 64.6125 -49.125 66.3125 C-41.00801625 67.49077183 -35.36596546 64.83377179 -28.421875 61.0703125 C-24.7237456 59.09856104 -21.08374872 57.65847456 -17.125 56.3125 C-17.125 55.3225 -17.125 54.3325 -17.125 53.3125 C-16.403125 53.374375 -15.68125 53.43625 -14.9375 53.5 C-11.32056469 53.25887098 -9.90949285 52.66860933 -7.125 50.3125 C-5.95403291 48.07474439 -5.00726192 45.83177944 -4.1171875 43.46875 C-3.07799354 41.21034422 -1.8865439 40.02428278 -0.125 38.3125 C-0.125 37.6525 -0.125 36.9925 -0.125 36.3125 C0.865 35.9825 1.855 35.6525 2.875 35.3125 C3.1534375 33.394375 3.1534375 33.394375 3.4375 31.4375 C3.54191406 30.71820313 3.64632812 29.99890625 3.75390625 29.2578125 C4.0434297 27.23109333 4.0434297 27.23109333 2.875 25.3125 C3.535 24.9825 4.195 24.6525 4.875 24.3125 C4.813125 23.343125 4.75125 22.37375 4.6875 21.375 C4.64804604 18.12662365 5.36894936 15.75937982 6.5625 12.75 C7.76335902 9.37258402 7.91133196 8.46900691 7.0625 4.8125 C4.99171774 1.99441618 4.99171774 1.99441618 1.25 1.25 C-5.68531039 0.89171828 -11.55184975 3.1085704 -16.125 8.3125 Z " fill="#F7CB6C" transform="translate(406.125,54.6875)"/>
<path d="M0 0 C11.61534836 4.09245434 22.44510525 14.03736003 28 25 C30.35508032 30.36188098 32.27690573 35.07847738 32 41 C31.7525 40.4225 31.505 39.845 31.25 39.25 C29.46804282 36.04247707 27.2985891 33.64929455 24 32 C23.855625 30.865625 23.71125 29.73125 23.5625 28.5625 C23.376875 27.386875 23.19125 26.21125 23 25 C22.01 24.34 21.02 23.68 20 23 C19.31867549 21.33927151 18.65257873 19.672233 18 18 C16.47992158 16.22722741 16.47992158 16.22722741 15 15 C15.33 14.01 15.66 13.02 16 12 C13.69 11.67 11.38 11.34 9 11 C8.67 9.68 8.34 8.36 8 7 C0.02488978 4.79266088 0.02488978 4.79266088 -8 6 C-14.50300152 13.26197252 -15.32462258 21.60345883 -15.25 30.9375 C-15.25773437 31.90107422 -15.26546875 32.86464844 -15.2734375 33.85742188 C-15.25850651 39.31843265 -14.75698946 43.83157965 -13 49 C-12.896875 49.763125 -12.79375 50.52625 -12.6875 51.3125 C-12.1092066 53.27561666 -12.1092066 53.27561666 -9.625 54.125 C-8.325625 54.558125 -8.325625 54.558125 -7 55 C-6.01 55.66 -5.02 56.32 -4 57 C-4 57.66 -4 58.32 -4 59 C-3.01 59.33 -2.02 59.66 -1 60 C-1.33 60.99 -1.66 61.98 -2 63 C-1.071875 63.2165625 -1.071875 63.2165625 -0.125 63.4375 C2 64 2 64 4 65 C4.2475 65.639375 4.495 66.27875 4.75 66.9375 C6.58959286 69.97282821 8.62613262 70.10878975 12 71 C13.29226893 71.37291929 14.58394576 71.74789694 15.875 72.125 C16.90625 72.41375 17.9375 72.7025 19 73 C19.598125 72.236875 20.19625 71.47375 20.8125 70.6875 C23 68 23 68 24.75 66.4375 C26.43745248 64.81442446 26.43745248 64.81442446 26 61 C26.99 60.67 27.98 60.34 29 60 C29.144375 58.700625 29.28875 57.40125 29.4375 56.0625 C29.875 52.125 29.875 52.125 31 51 C31.36760731 48.67182036 31.70241581 46.3381615 32 44 C32.33 44 32.66 44 33 44 C33.45979395 56.00573092 31.85576399 67.37374074 23.625 76.6875 C20.84495235 78.07752383 19.12287709 78.40110296 16.07421875 77.7265625 C1.69015494 72.68807687 -9.42581186 61.61142097 -16.140625 48.15234375 C-20.35750308 37.59098093 -21.41505916 22.9609911 -17.375 12.1875 C-13.32796948 4.15125369 -9.66104786 -2.50936308 0 0 Z " fill="#F0C967" transform="translate(305,37)"/>
<path d="M0 0 C0.77943466 0.00222061 1.55886932 0.00444122 2.36192322 0.00672913 C3.68317955 0.00684242 3.68317955 0.00684242 5.03112793 0.00695801 C5.98841293 0.01211929 6.94569794 0.01728058 7.93199158 0.02259827 C9.39480812 0.02472069 9.39480812 0.02472069 10.88717651 0.02688599 C14.01542675 0.03250319 17.14360656 0.04505859 20.27183533 0.05775452 C22.38706867 0.0627673 24.50230313 0.06733059 26.61753845 0.07142639 C31.81482829 0.0824782 37.01207678 0.09923305 42.20933533 0.12025452 C41.87933533 0.78025452 41.54933533 1.44025452 41.20933533 2.12025452 C27.34933533 2.12025452 13.48933533 2.12025452 -0.79066467 2.12025452 C-0.79066467 52.28025452 -0.79066467 102.44025452 -0.79066467 154.12025452 C31.54933533 154.12025452 63.88933533 154.12025452 97.20933533 154.12025452 C97.20933533 154.45025452 97.20933533 154.78025452 97.20933533 155.12025452 C84.31861278 155.14337562 71.42789513 155.16116841 58.53715611 155.17206669 C52.55214267 155.17729603 46.56714336 155.18439459 40.58213806 155.19569397 C34.81150103 155.20652105 29.04087764 155.21253097 23.27023125 155.21513176 C21.06330589 155.21698633 18.85638133 155.22060756 16.64946175 155.22598457 C13.56987491 155.23319262 10.49034519 155.23424556 7.41075134 155.23377991 C6.4886235 155.23737518 5.56649567 155.24097046 4.61642456 155.24467468 C-1.67661251 155.23430668 -1.67661251 155.23430668 -2.79066467 154.12025452 C-2.8895428 152.14827913 -2.91698723 150.17271012 -2.91764832 148.19825745 C-2.92046814 146.91096237 -2.92328796 145.6236673 -2.92619324 144.29736328 C-2.92424864 142.85746751 -2.92220045 141.41757188 -2.9200592 139.97767639 C-2.92141319 138.47178098 -2.9231931 136.9658859 -2.92536926 135.45999146 C-2.92994396 131.35886645 -2.92815389 127.25776648 -2.92499018 123.15664101 C-2.92246676 118.87428848 -2.92480406 114.59193817 -2.92637634 110.30958557 C-2.92819809 103.11675123 -2.92579159 95.92392714 -2.92103577 88.73109436 C-2.91559314 80.40309118 -2.91735579 72.07511248 -2.92286217 63.74710989 C-2.92739315 56.60997606 -2.92804393 49.47284962 -2.9254235 42.33571482 C-2.92386064 38.06727096 -2.9236672 33.79883863 -2.92695999 29.53039551 C-2.92983848 25.51841518 -2.92786342 21.50646656 -2.92206573 17.49448967 C-2.92073802 16.01780691 -2.92113245 14.5411215 -2.9233284 13.06443977 C-2.92603942 11.05704465 -2.92204551 9.04964373 -2.91764832 7.04225159 C-2.91727129 5.91619759 -2.91689426 4.79014359 -2.91650581 3.62996674 C-2.74373231 0.18425907 -2.74373231 0.18425907 0 0 Z " fill="#18995B" transform="translate(49.79066467285156,96.87974548339844)"/>
<path d="M0 0 C5.89825671 4.59929316 11.57530396 10.04398577 14.6875 16.9375 C13.6975 17.4325 13.6975 17.4325 12.6875 17.9375 C12.0275 18.9275 11.3675 19.9175 10.6875 20.9375 C10.130625 20.2775 9.57375 19.6175 9 18.9375 C6.16989704 16.48984338 5.30126818 16.8514579 1.6875 16.9375 C-1.625 15.4375 -1.625 15.4375 -4.3125 13.9375 C-4.3125 13.2775 -4.3125 12.6175 -4.3125 11.9375 C-6.6225 11.2775 -8.9325 10.6175 -11.3125 9.9375 C-11.3125 8.2875 -11.3125 6.6375 -11.3125 4.9375 C-12.055 5.185 -12.7975 5.4325 -13.5625 5.6875 C-14.47 5.77 -15.3775 5.8525 -16.3125 5.9375 C-18.625 4 -18.625 4 -20.3125 1.9375 C-22.6225 2.5975 -24.9325 3.2575 -27.3125 3.9375 C-26.9825 4.9275 -26.6525 5.9175 -26.3125 6.9375 C-27.25 9.125 -27.25 9.125 -28.3125 10.9375 C-32.45596863 4.0374262 -32.45596863 4.0374262 -31.9375 0.0625 C-29.20936393 -3.50506255 -25.7269181 -3.7717585 -21.5 -4.640625 C-13.87590856 -5.64969593 -6.4213908 -4.27761891 0 0 Z " fill="#C9C758" transform="translate(287.3125,106.0625)"/>
<path d="M0 0 C7.92 0 15.84 0 24 0 C25.96428367 1.96428367 25.12023917 4.98297163 25.12442017 7.59747314 C25.12082489 8.5476532 25.11722961 9.49783325 25.11352539 10.47680664 C25.11367142 11.47181686 25.11381744 12.46682709 25.1139679 13.49198914 C25.11326831 16.79806662 25.10547379 20.10408854 25.09765625 23.41015625 C25.09579223 25.69559193 25.09436825 27.98102801 25.09336853 30.26646423 C25.08954207 36.29498387 25.0797107 42.32347959 25.06866455 48.35198975 C25.05845317 54.49832841 25.0538715 60.64467093 25.04882812 66.79101562 C25.03808854 78.86068762 25.0210106 90.93034182 25 103 C24.34 103 23.68 103 23 103 C23 69.67 23 36.34 23 2 C15.74 2 8.48 2 1 2 C1 38.3 1 74.6 1 112 C0.67 112 0.34 112 0 112 C0 75.04 0 38.08 0 0 Z " fill="#34A248" transform="translate(624,139)"/>
<path d="M0 0 C2.12241002 3.18361503 2.55821646 5.20204272 2.42578125 9.0078125 C1.82501409 11.81874143 0.32862832 13.30165852 -1.98828125 14.921875 C-6.13066781 17.14187246 -10.54421643 18.54436996 -15 20 C-23.45870537 22.76933116 -30.90096371 25.53486889 -38 31 C-38.66 30.67 -39.32 30.34 -40 30 C-39.67 29.34 -39.34 28.68 -39 28 C-38.34 28 -37.68 28 -37 28 C-36.87625 27.38125 -36.7525 26.7625 -36.625 26.125 C-36 24 -36 24 -34 22 C-30.9463092 20.88956698 -27.85533941 19.95548905 -24.75 19 C-21.90183016 18.1837538 -21.90183016 18.1837538 -20 16 C-17.72741015 15.27094862 -15.43139932 14.61376115 -13.125 14 C-7.37611947 12.47487565 -7.37611947 12.47487565 -2 10 C-2.495 6.535 -2.495 6.535 -3 3 C-15.60611019 2.28070319 -15.60611019 2.28070319 -27.1796875 6.90625 C-29 8 -29 8 -31 8 C-31 8.66 -31 9.32 -31 10 C-31.84884766 10.25523438 -31.84884766 10.25523438 -32.71484375 10.515625 C-33.81505859 10.87914062 -33.81505859 10.87914062 -34.9375 11.25 C-35.66839844 11.48203125 -36.39929688 11.7140625 -37.15234375 11.953125 C-39.20570556 12.8507553 -39.20570556 12.8507553 -39.75390625 15.109375 C-39.83511719 15.73328125 -39.91632813 16.3571875 -40 17 C-40.66 17 -41.32 17 -42 17 C-42.226875 17.78375 -42.45375 18.5675 -42.6875 19.375 C-44 22 -44 22 -46.625 23.3125 C-47.40875 23.539375 -48.1925 23.76625 -49 24 C-46.32972244 14.50567979 -37.03233833 7.85601151 -29 3 C-20.41763479 -0.90824243 -8.92805613 -4.98920784 0 0 Z " fill="#F7BB57" transform="translate(408,32)"/>
<path d="M0 0 C7.92 0 15.84 0 24 0 C23.67 0.66 23.34 1.32 23 2 C15.74 1.67 8.48 1.34 1 1 C1 37.3 1 73.6 1 111 C7.93 111 14.86 111 22 111 C22.01981934 108.95055176 22.03963867 106.90110352 22.06005859 104.78955078 C22.12688141 98.02803096 22.20452183 91.2666668 22.28752708 84.50532722 C22.33753305 80.40479051 22.38386246 76.3042801 22.421875 72.20361328 C22.45867383 68.24831801 22.50501856 64.29324055 22.55806351 60.33813095 C22.57663632 58.82705368 22.59173356 57.31592967 22.60334396 55.80478287 C22.62015753 53.69270638 22.64917921 51.58113192 22.68115234 49.46923828 C22.69447601 48.26566681 22.70779968 47.06209534 22.7215271 45.822052 C23 43 23 43 25 41 C25.02312524 50.23997552 25.04091601 59.47994114 25.05181217 68.71993923 C25.05704061 73.00999915 25.06413753 77.30003933 25.07543945 81.59008789 C25.08626975 85.726794 25.09227714 89.86348108 25.09487724 94.00020027 C25.09673124 95.58192304 25.10035136 97.16364471 25.10573006 98.74535942 C25.1129424 100.95322838 25.11399086 103.16101773 25.11352539 105.36889648 C25.115746 106.62798325 25.11796661 107.88707001 25.12025452 109.18431091 C25 112 25 112 24 113 C22.30441274 113.09932153 20.60474253 113.13080007 18.90625 113.1328125 C17.87628906 113.13410156 16.84632813 113.13539063 15.78515625 113.13671875 C14.15900391 113.13091797 14.15900391 113.13091797 12.5 113.125 C11.41589844 113.12886719 10.33179688 113.13273437 9.21484375 113.13671875 C8.18488281 113.13542969 7.15492188 113.13414062 6.09375 113.1328125 C5.14177734 113.13168457 4.18980469 113.13055664 3.20898438 113.12939453 C1 113 1 113 0 112 C-0.0956161 110.54518505 -0.12188351 109.08574514 -0.12025452 107.62779236 C-0.12231651 106.21215248 -0.12231651 106.21215248 -0.12442017 104.76791382 C-0.12082489 103.72422638 -0.11722961 102.68053894 -0.11352539 101.60522461 C-0.11367142 100.51267868 -0.11381744 99.42013275 -0.1139679 98.29447937 C-0.11326822 94.66374767 -0.10547329 91.03306654 -0.09765625 87.40234375 C-0.09579226 84.89270557 -0.09436827 82.38306702 -0.09336853 79.87342834 C-0.08993348 73.93065407 -0.08204273 67.98789616 -0.07201904 62.04513031 C-0.05976253 54.61798075 -0.05437792 47.19082895 -0.04882812 39.76367188 C-0.03808811 26.50910345 -0.02049008 13.25455694 0 0 Z " fill="#29914F" transform="translate(674,139)"/>
<path d="M0 0 C0.33 0 0.66 0 1 0 C1.45979395 12.00573092 -0.14423601 23.37374074 -8.375 32.6875 C-11.15504765 34.07752383 -12.87712291 34.40110296 -15.92578125 33.7265625 C-25.57775278 30.34564592 -35.67955507 23.88359541 -40.78125 14.84375 C-42 12 -42 12 -42 10 C-40 11 -38 12 -36 13 C-36 13.66 -36 14.32 -36 15 C-35.01 15.33 -34.02 15.66 -33 16 C-33.33 16.99 -33.66 17.98 -34 19 C-33.071875 19.2165625 -33.071875 19.2165625 -32.125 19.4375 C-30 20 -30 20 -28 21 C-27.7525 21.639375 -27.505 22.27875 -27.25 22.9375 C-25.41040714 25.97282821 -23.37386738 26.10878975 -20 27 C-18.70773107 27.37291929 -17.41605424 27.74789694 -16.125 28.125 C-14.578125 28.558125 -14.578125 28.558125 -13 29 C-12.1028125 27.8553125 -12.1028125 27.8553125 -11.1875 26.6875 C-9 24 -9 24 -7.25 22.4375 C-5.56254752 20.81442446 -5.56254752 20.81442446 -6 17 C-5.01 16.67 -4.02 16.34 -3 16 C-2.855625 14.700625 -2.71125 13.40125 -2.5625 12.0625 C-2.125 8.125 -2.125 8.125 -1 7 C-0.63239269 4.67182036 -0.29758419 2.3381615 0 0 Z " fill="#DFCE60" transform="translate(337,81)"/>
<path d="M0 0 C0.77943466 0.00222061 1.55886932 0.00444122 2.36192322 0.00672913 C3.68317955 0.00684242 3.68317955 0.00684242 5.03112793 0.00695801 C5.98841293 0.01211929 6.94569794 0.01728058 7.93199158 0.02259827 C9.39480812 0.02472069 9.39480812 0.02472069 10.88717651 0.02688599 C14.01542675 0.03250319 17.14360656 0.04505859 20.27183533 0.05775452 C22.38706867 0.0627673 24.50230313 0.06733059 26.61753845 0.07142639 C31.81482829 0.0824782 37.01207678 0.09923305 42.20933533 0.12025452 C41.87933533 0.78025452 41.54933533 1.44025452 41.20933533 2.12025452 C27.34933533 2.12025452 13.48933533 2.12025452 -0.79066467 2.12025452 C-1.12066467 52.28025452 -1.45066467 102.44025452 -1.79066467 154.12025452 C-2.12066467 154.12025452 -2.45066467 154.12025452 -2.79066467 154.12025452 C-2.81399211 134.18880508 -2.83164308 114.25735841 -2.84247684 94.32589817 C-2.84764013 85.07204292 -2.85468345 75.81819613 -2.86610413 66.56434631 C-2.87604996 58.50169254 -2.88251786 50.43904489 -2.88475317 42.37638515 C-2.88606045 38.10456931 -2.88914737 33.83277101 -2.89639473 29.56096077 C-2.90315337 25.54489496 -2.90528196 21.52885401 -2.90377235 17.51278305 C-2.90404875 16.03448667 -2.90605481 14.55618951 -2.90987015 13.07789803 C-2.91480488 11.06826495 -2.91306282 9.0586187 -2.91091919 7.04898071 C-2.91184098 5.92162789 -2.91276278 4.79427507 -2.9137125 3.63276005 C-2.7448287 0.1843327 -2.7448287 0.1843327 0 0 Z " fill="#338744" transform="translate(49.79066467285156,96.87974548339844)"/>
<path d="M0 0 C5.89825671 4.59929316 11.57530396 10.04398577 14.6875 16.9375 C13.6975 17.4325 13.6975 17.4325 12.6875 17.9375 C12.0275 18.9275 11.3675 19.9175 10.6875 20.9375 C7.18444914 17.90152259 5.91648624 15.38075795 4.6875 10.9375 C4.1925 9.4525 4.1925 9.4525 3.6875 7.9375 C2.6975 7.6075 1.7075 7.2775 0.6875 6.9375 C0.0275 6.2775 -0.6325 5.6175 -1.3125 4.9375 C-1.9725 4.9375 -2.6325 4.9375 -3.3125 4.9375 C-3.6425 3.9475 -3.9725 2.9575 -4.3125 1.9375 C-11.15124384 -0.97558679 -20.23386102 -1.08728232 -27.3125 0.9375 C-27.6106424 4.7138932 -27.6106424 4.7138932 -26.3125 6.9375 C-27.25 9.0625 -27.25 9.0625 -28.3125 10.9375 C-32.45596863 4.0374262 -32.45596863 4.0374262 -31.9375 0.0625 C-29.20936393 -3.50506255 -25.7269181 -3.7717585 -21.5 -4.640625 C-13.87590856 -5.64969593 -6.4213908 -4.27761891 0 0 Z " fill="#D5D082" transform="translate(287.3125,106.0625)"/>
<path d="M0 0 C0.33 0 0.66 0 1 0 C1 1.98 1 3.96 1 6 C0.01 6.495 0.01 6.495 -1 7 C-1.69093896 9.57951874 -1.69093896 9.57951874 -2.125 12.5625 C-2.29257812 13.57441406 -2.46015625 14.58632812 -2.6328125 15.62890625 C-2.75398438 16.41136719 -2.87515625 17.19382812 -3 18 C-2.34 18 -1.68 18 -1 18 C-1 19.65 -1 21.3 -1 23 C7.17445803 22.24623439 13.52107914 20.7310493 20.5625 16.4375 C24.08409009 14.36066482 26.88148106 13 31 13 C31 12.01 31 11.02 31 10 C34.31114834 8.87119943 37.58978257 7.78697325 41 7 C34.45829677 16.81255484 21.58642946 22.87273144 10.3984375 25.64453125 C7.89481163 26.01558981 5.46779717 26.23819452 2.9375 26.3125 C2.10089844 26.34988281 1.26429688 26.38726562 0.40234375 26.42578125 C-2.93791224 25.8337684 -4.05099108 24.75207279 -6 22 C-6.27734375 18.94140625 -6.27734375 18.94140625 -5.9375 15.5625 C-5.84339844 14.45003906 -5.74929688 13.33757812 -5.65234375 12.19140625 C-4.97009823 8.85371407 -4.03703893 6.71774521 -2 4 C-1.34 4 -0.68 4 0 4 C0 2.68 0 1.36 0 0 Z " fill="#F3CA60" transform="translate(358,98)"/>
<path d="M0 0 C16.17 0 32.34 0 49 0 C49 7.59 49 15.18 49 23 C24.25 23 -0.5 23 -26 23 C-26 22.67 -26 22.34 -26 22 C-1.58 22 22.84 22 48 22 C48 15.73 48 9.46 48 3 C32.49 2.67 16.98 2.34 1 2 C0.67 1.34 0.34 0.68 0 0 Z " fill="#29A543" transform="translate(100,97)"/>
<path d="M0 0 C3.06843842 1.19815214 6.03975113 2.55679477 9 4 C6 5 6 5 3.375 4.0625 C-0.68690675 2.78375158 -4.7890067 2.05352913 -9 3 C-12.11615748 6.00154019 -12.56384699 8.99925796 -13.125 13.1875 C-13.914446 18.914446 -13.914446 18.914446 -15 20 C-15.25391333 23.53430291 -15.18523797 27.08266874 -15.1875 30.625 C-15.19974609 31.61113281 -15.21199219 32.59726563 -15.22460938 33.61328125 C-15.23572699 39.16467645 -14.83161984 43.75585651 -13 49 C-12.65864073 50.33130115 -12.32074044 51.66358148 -12 53 C-11.34 53 -10.68 53 -10 53 C-9.67 54.65 -9.34 56.3 -9 58 C-15.13153593 52.74439777 -18.47576029 44.58977793 -19.22216797 36.63110352 C-19.86022766 22.29119127 -19.06742458 11.0166389 -9 0 C-5.94778996 -1.52610502 -3.19215991 -0.80102889 0 0 Z " fill="#F6D068" transform="translate(305,37)"/>
<path d="M0 0 C1.02996094 -0.00128906 2.05992187 -0.00257812 3.12109375 -0.00390625 C4.74724609 0.00189453 4.74724609 0.00189453 6.40625 0.0078125 C7.49035156 0.00394531 8.57445312 0.00007813 9.69140625 -0.00390625 C10.72136719 -0.00261719 11.75132812 -0.00132813 12.8125 0 C14.24045898 0.00169189 14.24045898 0.00169189 15.69726562 0.00341797 C17.90625 0.1328125 17.90625 0.1328125 18.90625 1.1328125 C19.00608058 3.12038278 19.03705753 5.1114877 19.0390625 7.1015625 C19.04099609 8.91720703 19.04099609 8.91720703 19.04296875 10.76953125 C19.03910156 12.04441406 19.03523437 13.31929687 19.03125 14.6328125 C19.03705078 16.54513672 19.03705078 16.54513672 19.04296875 18.49609375 C19.04167969 19.70652344 19.04039062 20.91695312 19.0390625 22.1640625 C19.03793457 23.28361328 19.03680664 24.40316406 19.03564453 25.55664062 C18.90625 28.1328125 18.90625 28.1328125 17.90625 29.1328125 C16.21066274 29.23213403 14.51099253 29.26361257 12.8125 29.265625 C11.78253906 29.26691406 10.75257813 29.26820312 9.69140625 29.26953125 C8.06525391 29.26373047 8.06525391 29.26373047 6.40625 29.2578125 C5.32214844 29.26167969 4.23804688 29.26554687 3.12109375 29.26953125 C2.09113281 29.26824219 1.06117188 29.26695313 0 29.265625 C-0.95197266 29.26449707 -1.90394531 29.26336914 -2.88476562 29.26220703 C-5.09375 29.1328125 -5.09375 29.1328125 -6.09375 28.1328125 C-6.19358058 26.14524222 -6.22455753 24.1541373 -6.2265625 22.1640625 C-6.22785156 20.95363281 -6.22914063 19.74320313 -6.23046875 18.49609375 C-6.22660156 17.22121094 -6.22273437 15.94632813 -6.21875 14.6328125 C-6.22261719 13.35792969 -6.22648438 12.08304688 -6.23046875 10.76953125 C-6.22917969 9.55910156 -6.22789062 8.34867188 -6.2265625 7.1015625 C-6.22543457 5.98201172 -6.22430664 4.86246094 -6.22314453 3.70898438 C-5.99590363 -0.81525335 -4.03329869 0.00477879 0 0 Z M-5.09375 2.1328125 C-5.09375 10.3828125 -5.09375 18.6328125 -5.09375 27.1328125 C2.16625 27.1328125 9.42625 27.1328125 16.90625 27.1328125 C16.90625 18.8828125 16.90625 10.6328125 16.90625 2.1328125 C9.64625 2.1328125 2.38625 2.1328125 -5.09375 2.1328125 Z " fill="#30A24B" transform="translate(630.09375,96.8671875)"/>
<path d="M0 0 C0.7425 0.53625 1.485 1.0725 2.25 1.625 C3.1575 2.07875 4.065 2.5325 5 3 C7.30287793 2.30859649 7.30287793 2.30859649 9 1 C11.30163882 4.45245824 11.34490322 5.94738713 11 10 C7.63371858 13.36628142 3.33960057 13.16948069 -1.25 13.25 C-8.22761992 13.19350105 -13.85932171 11.15963312 -20 8 C-19.01 7.34 -18.02 6.68 -17 6 C-14.91501094 6.47080398 -12.83150233 6.95067874 -10.76171875 7.484375 C-5.5587552 8.45579111 -0.27189541 8.14666788 5 8 C3.77718614 4.20611875 3.77718614 4.20611875 0.875 1.6875 C-0.053125 1.3471875 -0.053125 1.3471875 -1 1 C-0.67 0.67 -0.34 0.34 0 0 Z " fill="#B9C566" transform="translate(293,122)"/>
<path d="M0 0 C0.33 0 0.66 0 1 0 C1 23.43 1 46.86 1 71 C-0.485 71.495 -0.485 71.495 -2 72 C-1.89258793 62.9075974 -1.77997287 53.81527866 -1.66066074 44.72302437 C-1.60542777 40.50141155 -1.55200717 36.27979181 -1.50268555 32.05810547 C-1.45504751 27.98617286 -1.40270491 23.91432574 -1.34705925 19.84249496 C-1.32663315 18.28674312 -1.30792049 16.73096783 -1.29092598 15.17517471 C-1.26688756 13.00097403 -1.2368324 10.82693544 -1.20532227 8.65283203 C-1.18977798 7.41373077 -1.1742337 6.17462952 -1.15821838 4.89797974 C-1 2 -1 2 0 0 Z " fill="#2E9A48" transform="translate(698,180)"/>
<path d="M0 0 C2.936684 2.42078006 3.5113899 4.1857049 3.875 7.9375 C4.59118811 19.78574244 -0.16433536 29.08736418 -6 39 C-6.66 39 -7.32 39 -8 39 C-8.268125 39.598125 -8.53625 40.19625 -8.8125 40.8125 C-9.98493467 42.97224808 -11.19369282 44.35790256 -13 46 C-12.43697042 42.05879291 -11.3208055 39.2491277 -9 36 C-8.34 36 -7.68 36 -7 36 C-6.814375 35.0409375 -6.814375 35.0409375 -6.625 34.0625 C-6.41875 33.381875 -6.2125 32.70125 -6 32 C-5.34 31.67 -4.68 31.34 -4 31 C-3.39657934 27.25879194 -3 23.78319079 -3 20 C-2.34 20 -1.68 20 -1 20 C-1.226875 19.030625 -1.45375 18.06125 -1.6875 17.0625 C-2.3176638 12.92862548 -1.1610556 9.91669959 0.40625 6.11328125 C1.09068539 3.6772316 0.81092251 2.36341233 0 0 Z " fill="#FCCA59" transform="translate(412,59)"/>
<path d="M0 0 C0.33 1.32 0.66 2.64 1 4 C-0.134375 3.835 -1.26875 3.67 -2.4375 3.5 C-9.92138718 2.64572992 -17.48015007 2.92229776 -25 3 C-25 3.66 -25 4.32 -25 5 C-26.65 5 -28.3 5 -30 5 C-30.33 4.01 -30.66 3.02 -31 2 C-20.31508315 -2.2371222 -11.09649038 -3.22806993 0 0 Z " fill="#638792" transform="translate(802,51)"/>
<path d="M0 0 C-1.32 0.33 -2.64 0.66 -4 1 C-4 1.66 -4 2.32 -4 3 C-5.95585325 4.00484204 -7.91476237 5.00373805 -9.875 6 C-10.96554687 6.556875 -12.05609375 7.11375 -13.1796875 7.6875 C-16 9 -16 9 -18 9 C-18 9.66 -18 10.32 -18 11 C-18.84884766 11.25523438 -18.84884766 11.25523438 -19.71484375 11.515625 C-20.81505859 11.87914062 -20.81505859 11.87914062 -21.9375 12.25 C-22.66839844 12.48203125 -23.39929688 12.7140625 -24.15234375 12.953125 C-26.20570556 13.8507553 -26.20570556 13.8507553 -26.75390625 16.109375 C-26.83511719 16.73328125 -26.91632813 17.3571875 -27 18 C-27.66 18 -28.32 18 -29 18 C-29.226875 18.78375 -29.45375 19.5675 -29.6875 20.375 C-31 23 -31 23 -33.625 24.3125 C-34.40875 24.539375 -35.1925 24.76625 -36 25 C-33.32802544 15.49964601 -24.03114746 8.86605718 -16 4 C-10.66294963 1.50657489 -5.93773027 -0.25538625 0 0 Z " fill="#F7BD72" transform="translate(395,31)"/>
<path d="M0 0 C2.44077852 2.44077852 2.23616181 3.74882359 2.25224304 7.07984924 C2.24505753 7.76635056 2.23787201 8.45285187 2.23046875 9.16015625 C2.22978142 10.21776405 2.22978142 10.21776405 2.2290802 11.29673767 C2.22605863 12.78711632 2.2181751 14.27749184 2.20581055 15.76782227 C2.18754456 18.05691633 2.18530091 20.34560627 2.18554688 22.63476562 C2.18063206 24.08073269 2.1748039 25.52669699 2.16796875 26.97265625 C2.16685593 27.66118179 2.1657431 28.34970734 2.16459656 29.05909729 C2.11605499 33.88394501 2.11605499 33.88394501 1 35 C-0.4887186 35.08669432 -1.981445 35.10703494 -3.47265625 35.09765625 C-4.37177734 35.09443359 -5.27089844 35.09121094 -6.19726562 35.08789062 C-7.61555664 35.07532227 -7.61555664 35.07532227 -9.0625 35.0625 C-10.01189453 35.05798828 -10.96128906 35.05347656 -11.93945312 35.04882812 C-14.29303065 35.0370011 -16.64648477 35.02052025 -19 35 C-15 33 -15 33 0 33 C0 22.11 0 11.22 0 0 Z " fill="#19A73E" transform="translate(191,217)"/>
<path d="M0 0 C0.77943466 0.00222061 1.55886932 0.00444122 2.36192322 0.00672913 C3.68317955 0.00684242 3.68317955 0.00684242 5.03112793 0.00695801 C5.98841293 0.01211929 6.94569794 0.01728058 7.93199158 0.02259827 C9.39480812 0.02472069 9.39480812 0.02472069 10.88717651 0.02688599 C14.01542675 0.03250319 17.14360656 0.04505859 20.27183533 0.05775452 C22.38706867 0.0627673 24.50230313 0.06733059 26.61753845 0.07142639 C31.81482829 0.0824782 37.01207678 0.09923305 42.20933533 0.12025452 C41.87933533 0.78025452 41.54933533 1.44025452 41.20933533 2.12025452 C27.34933533 2.12025452 13.48933533 2.12025452 -0.79066467 2.12025452 C-0.79066467 3.77025452 -0.79066467 5.42025452 -0.79066467 7.12025452 C-1.78066467 7.61525452 -1.78066467 7.61525452 -2.79066467 8.12025452 C-2.8330819 5.78730676 -2.83159405 3.45322885 -2.79066467 1.12025452 C-1.79066467 0.12025452 -1.79066467 0.12025452 0 0 Z " fill="#37A647" transform="translate(49.79066467285156,96.87974548339844)"/>
<path d="M0 0 C7.50862259 1.63453009 11.63188545 4.69587899 16 11 C16.69664614 12.31791744 17.37357832 13.64729231 18 15 C17.01 15.495 17.01 15.495 16 16 C15.34 16.99 14.68 17.98 14 19 C10.49694914 15.96402259 9.22898624 13.44325795 8 9 C7.67 8.01 7.34 7.02 7 6 C6.01 5.67 5.02 5.34 4 5 C3.34 4.34 2.68 3.68 2 3 C1.34 3 0.68 3 0 3 C0 2.01 0 1.02 0 0 Z " fill="#D0CA6E" transform="translate(284,108)"/>
<path d="M0 0 C1.14254876 4.57019502 0.55446596 6.28573068 -0.875 10.6875 C-1.42800781 12.42580078 -1.42800781 12.42580078 -1.9921875 14.19921875 C-3 17 -3 17 -4 18 C-5.78071246 18.08726223 -7.5648314 18.10699041 -9.34765625 18.09765625 C-10.42724609 18.09443359 -11.50683594 18.09121094 -12.61914062 18.08789062 C-13.75544922 18.07951172 -14.89175781 18.07113281 -16.0625 18.0625 C-17.20267578 18.05798828 -18.34285156 18.05347656 -19.51757812 18.04882812 C-22.34510351 18.03699747 -25.1725264 18.0205141 -28 18 C-27.67 17.34 -27.34 16.68 -27 16 C-20.73 16 -14.46 16 -8 16 C-8 14.35 -8 12.7 -8 11 C-7.01 11.33 -6.02 11.66 -5 12 C-4.67 11.01 -4.34 10.02 -4 9 C-3.34 9 -2.68 9 -2 9 C-1.34 6.03 -0.68 3.06 0 0 Z " fill="#129C4D" transform="translate(480,234)"/>
<path d="M0 0 C1.87581086 2.81371629 2.49707095 4.4275786 3.25390625 7.6328125 C3.46853516 8.52097656 3.68316406 9.40914062 3.90429688 10.32421875 C4.12150391 11.24847656 4.33871094 12.17273438 4.5625 13.125 C4.99817232 14.96168272 5.43681452 16.79766437 5.87890625 18.6328125 C6.0704126 19.44637207 6.26191895 20.25993164 6.45922852 21.09814453 C6.83144378 22.99369529 6.83144378 22.99369529 8 24 C9.98 16.74 11.96 9.48 14 2 C14.33 2 14.66 2 15 2 C14.65878192 8.25566476 13.30746069 13.94821053 11.5625 19.9375 C11.34505127 20.69538818 11.12760254 21.45327637 10.90356445 22.23413086 C9.25121835 27.74878165 9.25121835 27.74878165 7 30 C4.05781997 27.05781997 3.01181381 25.67338695 2.9375 21.4375 C2.97746094 20.75945312 3.01742188 20.08140625 3.05859375 19.3828125 C2.96022926 15.3826567 1.74087879 11.66338202 0.65625 7.83203125 C0.02481442 5.10708604 -0.1221438 2.78386086 0 0 Z " fill="#1EA340" transform="translate(456,188)"/>
<path d="M0 0 C2.61376953 -0.34057617 2.61376953 -0.34057617 5.8828125 -0.29296875 C7.04941406 -0.28330078 8.21601562 -0.27363281 9.41796875 -0.26367188 C10.64128906 -0.23853516 11.86460937 -0.21339844 13.125 -0.1875 C14.35605469 -0.17396484 15.58710937 -0.16042969 16.85546875 -0.14648438 C19.90407843 -0.11103543 22.951825 -0.06162079 26 0 C24.99140565 5.27602305 23.98773358 10.49357497 22.375 15.625 C22.11460937 16.46289062 21.85421875 17.30078125 21.5859375 18.1640625 C21.39257812 18.76992187 21.19921875 19.37578125 21 20 C20.34 19.67 19.68 19.34 19 19 C19.57547891 12.38199258 21.33203174 8.66992064 24 2 C16.08 2 8.16 2 0 2 C-0.33 3.32 -0.66 4.64 -1 6 C-1.33 5.01 -1.66 4.02 -2 3 C-1.34 2.01 -0.68 1.02 0 0 Z " fill="#37A847" transform="translate(584,97)"/>
<path d="M0 0 C-0.44909061 1.48199902 -0.90956564 2.96055236 -1.375 4.4375 C-1.63023437 5.26121094 -1.88546875 6.08492187 -2.1484375 6.93359375 C-3 9 -3 9 -5 10 C-4.67 10.66 -4.34 11.32 -4 12 C-6.64 12.33 -9.28 12.66 -12 13 C-8.0801105 -0.89779006 -8.0801105 -0.89779006 0 0 Z " fill="#FCB533" transform="translate(370,54)"/>
<path d="M0 0 C0.33 0 0.66 0 1 0 C1.125 2.375 1.125 2.375 1 5 C-2.36628142 8.36628142 -6.66039943 8.16948069 -11.25 8.25 C-18.22761992 8.19350105 -23.85932171 6.15963312 -30 3 C-27 1 -27 1 -24.87890625 1.13671875 C-24.11449219 1.31847656 -23.35007812 1.50023437 -22.5625 1.6875 C-21.80066406 1.85636719 -21.03882813 2.02523437 -20.25390625 2.19921875 C-18 3 -18 3 -16.13671875 4.6015625 C-13.05467064 6.61869819 -10.85405994 6.08394659 -7.25 5.6875 C-6.07953125 5.56761719 -4.9090625 5.44773438 -3.703125 5.32421875 C-2.81109375 5.21722656 -1.9190625 5.11023438 -1 5 C-0.67 3.35 -0.34 1.7 0 0 Z " fill="#A9B874" transform="translate(303,127)"/>
<path d="M0 0 C0.66 0.33 1.32 0.66 2 1 C1.814375 1.928125 1.62875 2.85625 1.4375 3.8125 C0.75876119 7.01343771 0.75876119 7.01343771 2 10 C1.67 10.66 1.34 11.32 1 12 C0.34 12 -0.32 12 -1 12 C-1.13664063 12.70898438 -1.27328125 13.41796875 -1.4140625 14.1484375 C-3.2033672 22.85638705 -5.62336469 31.43737064 -8 40 C-8.66 40 -9.32 40 -10 40 C-6.94079573 26.59348716 -3.51754357 13.29300158 0 0 Z " fill="#20A03D" transform="translate(564,170)"/>
<path d="M0 0 C0.33 0 0.66 0 1 0 C1.0270043 1.45823212 1.04639787 2.91660675 1.0625 4.375 C1.07410156 5.18710937 1.08570313 5.99921875 1.09765625 6.8359375 C1 9 1 9 0 11 C1.98 10.67 3.96 10.34 6 10 C5.09827532 11.17825358 4.17798498 12.34231577 3.25 13.5 C2.73953125 14.1496875 2.2290625 14.799375 1.703125 15.46875 C0 17 0 17 -4 17 C-5.40843182 12.45422306 -4.4862514 9.95728968 -2.5625 5.6875 C-1.85287109 4.08455078 -1.85287109 4.08455078 -1.12890625 2.44921875 C-0.75636719 1.64097656 -0.38382812 0.83273438 0 0 Z " fill="#F3B959" transform="translate(358,56)"/>
<path d="M0 0 C8.58 0 17.16 0 26 0 C28 5 28 5 27 8 C26.34 6.02 25.68 4.04 25 2 C17.41 2.33 9.82 2.66 2 3 C2 4.65 2 6.3 2 8 C0 5 0 5 0 0 Z " fill="#349844" transform="translate(407,97)"/>
<path d="M0 0 C0.33 0 0.66 0 1 0 C1.04487549 0.55349121 1.08975098 1.10698242 1.13598633 1.67724609 C2.06980622 15.06996375 2.06980622 15.06996375 5.31640625 28.02734375 C6.11169852 30.32233001 6.56416712 32.61329611 7 35 C7.66 35 8.32 35 9 35 C9.33 36.65 9.66 38.3 10 40 C4.4079879 35.20684677 1.32660988 28.17120249 0 21 C-0.22758975 17.34905167 -0.18997561 13.71862766 -0.125 10.0625 C-0.11597656 9.09248047 -0.10695313 8.12246094 -0.09765625 7.12304688 C-0.07426107 4.74843593 -0.04148176 2.37435224 0 0 Z " fill="#E8CE81" transform="translate(286,55)"/>
<path d="M0 0 C1.28197266 -0.03867187 1.28197266 -0.03867187 2.58984375 -0.078125 C5.58474105 0.31930213 6.89498006 1.17461178 9.0625 3.25 C10.02320434 6.13211302 10.16831883 7.94850044 10.125 10.9375 C10.11597656 11.74574219 10.10695313 12.55398437 10.09765625 13.38671875 C10.08605469 14.00160156 10.07445312 14.61648437 10.0625 15.25 C9.7325 15.25 9.4025 15.25 9.0625 15.25 C8.94132812 14.55132812 8.82015625 13.85265625 8.6953125 13.1328125 C8.52773438 12.22273438 8.36015625 11.31265625 8.1875 10.375 C8.02507812 9.47007813 7.86265625 8.56515625 7.6953125 7.6328125 C7.23205297 5.08494012 7.23205297 5.08494012 5.0625 3.25 C-1.20434091 1.99651071 -1.20434091 1.99651071 -6.9375 4.25 C-9.6875 4.375 -9.6875 4.375 -11.9375 4.25 C-12.2675 5.24 -12.5975 6.23 -12.9375 7.25 C-15.9375 8.25 -15.9375 8.25 -18.125 7.3125 C-18.723125 6.961875 -19.32125 6.61125 -19.9375 6.25 C-18.00055322 5.43618205 -16.06292289 4.62399084 -14.125 3.8125 C-13.04605469 3.36003906 -11.96710938 2.90757813 -10.85546875 2.44140625 C-7.05694409 0.89046914 -4.08533683 0.07372036 0 0 Z " fill="#EDC684" transform="translate(405.9375,54.75)"/>
<path d="M0 0 C1.32 0.33 2.64 0.66 4 1 C4.33 2.32 4.66 3.64 5 5 C5.66 5 6.32 5 7 5 C7 10.28 7 15.56 7 21 C6.34 20.67 5.68 20.34 5 20 C4.59270772 17.67843403 4.25561323 15.3431213 4 13 C3.01 12.67 2.02 12.34 1 12 C0.82057837 8.05272412 0.90649311 5.4019487 3 2 C2.01 2 1.02 2 0 2 C0 1.34 0 0.68 0 0 Z " fill="#3C4F57" transform="translate(824,77)"/>
<path d="M0 0 C0.66 0 1.32 0 2 0 C1.54795511 6.3716804 -0.06033656 10.90010964 -3.0625 16.5 C-3.62807617 17.59054688 -3.62807617 17.59054688 -4.20507812 18.703125 C-5.12572954 20.47450493 -6.06132136 22.23810661 -7 24 C-7.66 24 -8.32 24 -9 24 C-9.268125 24.598125 -9.53625 25.19625 -9.8125 25.8125 C-10.98493467 27.97224808 -12.19369282 29.35790256 -14 31 C-13.43697042 27.05879291 -12.3208055 24.2491277 -10 21 C-9.34 21 -8.68 21 -8 21 C-7.87625 20.360625 -7.7525 19.72125 -7.625 19.0625 C-7.41875 18.381875 -7.2125 17.70125 -7 17 C-6.34 16.67 -5.68 16.34 -5 16 C-4.34786708 13.97536745 -4.34786708 13.97536745 -4 12 C-3.34 12 -2.68 12 -2 12 C-1.34 8.04 -0.68 4.08 0 0 Z " fill="#E8CE79" transform="translate(413,74)"/>
<path d="M0 0 C5.69734495 6.51125137 10.52132447 15.13748406 10 24 C9.7525 23.4225 9.505 22.845 9.25 22.25 C7.46804282 19.04247707 5.2985891 16.64929455 2 15 C1.375 12.9375 1.375 12.9375 1 11 C1.66 11 2.32 11 3 11 C2.67 8.69 2.34 6.38 2 4 C1.34 4 0.68 4 0 4 C0 2.68 0 1.36 0 0 Z " fill="#E6C86B" transform="translate(327,54)"/>
<path d="M0 0 C0.33 0.66 0.66 1.32 1 2 C-0.85065714 6.3182 -3.89531028 8.74631615 -7.39453125 11.6875 C-13.19583207 16.83648064 -18.55162556 22.48275566 -24 28 C-24.66 27.67 -25.32 27.34 -26 27 C-25.42556152 26.43079834 -24.85112305 25.86159668 -24.25927734 25.27514648 C-21.62849048 22.66529778 -19.00172405 20.05143749 -16.375 17.4375 C-15.47136719 16.54224609 -14.56773437 15.64699219 -13.63671875 14.72460938 C-8.86893107 9.97422238 -4.28613313 5.19035059 0 0 Z " fill="#2AA147" transform="translate(224,153)"/>
<path d="M0 0 C1.51400391 0.01740234 1.51400391 0.01740234 3.05859375 0.03515625 C4.07050781 0.04417969 5.08242188 0.05320312 6.125 0.0625 C7.29869141 0.07990234 7.29869141 0.07990234 8.49609375 0.09765625 C7.49609375 2.09765625 7.49609375 2.09765625 5.6484375 2.73046875 C4.91753906 2.89289063 4.18664062 3.0553125 3.43359375 3.22265625 C2.33337891 3.47402344 2.33337891 3.47402344 1.2109375 3.73046875 C0.64503906 3.85164063 0.07914062 3.9728125 -0.50390625 4.09765625 C-0.80204865 7.87404945 -0.80204865 7.87404945 0.49609375 10.09765625 C-0.44140625 12.22265625 -0.44140625 12.22265625 -1.50390625 14.09765625 C-5.72937598 7.06102691 -5.72937598 7.06102691 -4.81640625 3.16015625 C-2.87679747 0.11219959 -2.87679747 0.11219959 0 0 Z " fill="#C6C97A" transform="translate(260.50390625,102.90234375)"/>
<path d="M0 0 C1.5 1.375 1.5 1.375 3 3 C3 3.66 3 4.32 3 5 C-5.91 5 -14.82 5 -24 5 C-24.33 4.34 -24.66 3.68 -25 3 C-16.75 3 -8.5 3 0 3 C0 2.01 0 1.02 0 0 Z " fill="#139958" transform="translate(267,247)"/>
<path d="M0 0 C2.67581306 1.5555818 3.09711267 3.25012685 3.96875 6.14453125 C3.41058594 5.85835937 2.85242188 5.5721875 2.27734375 5.27734375 C-9.59891593 -0.55026252 -20.26879742 -1.31647284 -33.03125 2.14453125 C-26.06747204 -5.48246366 -9.0849272 -2.39741134 0 0 Z " fill="#25A244" transform="translate(356.03125,160.85546875)"/>
<path d="M0 0 C7.59 0.33 15.18 0.66 23 1 C22 3 22 3 20.23046875 3.61328125 C12.97750903 4.87079966 6.03967567 3.90445332 -1 2 C-0.67 1.34 -0.34 0.68 0 0 Z " fill="#406364" transform="translate(776,127)"/>
<path d="M0 0 C0.33 0 0.66 0 1 0 C1 1.98 1 3.96 1 6 C0.01 6.495 0.01 6.495 -1 7 C-1.69093896 9.57951874 -1.69093896 9.57951874 -2.125 12.5625 C-2.29257812 13.57441406 -2.46015625 14.58632812 -2.6328125 15.62890625 C-2.75398438 16.41136719 -2.87515625 17.19382812 -3 18 C-2.34 18 -1.68 18 -1 18 C-1 19.32 -1 20.64 -1 22 C-2.65 22.33 -4.3 22.66 -6 23 C-5.91249445 20.77011716 -5.80430939 18.54103995 -5.6875 16.3125 C-5.62949219 15.07113281 -5.57148438 13.82976562 -5.51171875 12.55078125 C-4.98839564 8.91947814 -4.23334741 6.8840511 -2 4 C-1.34 4 -0.68 4 0 4 C0 2.68 0 1.36 0 0 Z " fill="#FCCB58" transform="translate(358,98)"/>
<path d="M0 0 C0.66 0.33 1.32 0.66 2 1 C2.1066962 7.44919246 1.91212572 13.61511997 1 20 C1 20.99 1 21.98 1 23 C0.01 23.33 -0.98 23.66 -2 24 C-2 24.66 -2 25.32 -2 26 C-2.66 26 -3.32 26 -4 26 C-3.79503906 25.37996094 -3.59007812 24.75992188 -3.37890625 24.12109375 C-0.92128376 16.04268871 -0.32851379 8.39409373 0 0 Z " fill="#259D45" transform="translate(371,188)"/>
<path d="M0 0 C3.06843842 1.19815214 6.03975113 2.55679477 9 4 C6 5 6 5 3.375 4.0625 C-0.85031919 2.73230692 -4.61159981 2.82446399 -9 3 C-10.32 5.31 -11.64 7.62 -13 10 C-13.66 10 -14.32 10 -15 10 C-12.20784213 1.85620621 -8.62460335 -2.16422631 0 0 Z " fill="#EFCA7B" transform="translate(305,37)"/>
<path d="M0 0 C5.61293424 0.01392788 10.99630476 0.12787928 16.5234375 1.1328125 C12.62194453 5.03430547 7.05989802 4.30191704 1.828125 4.4609375 C-0.92460567 4.0690233 -1.76300245 3.26076289 -3.4765625 1.1328125 C-2.4765625 0.1328125 -2.4765625 0.1328125 0 0 Z " fill="#ECCE6B" transform="translate(356.4765625,119.8671875)"/>
<path d="M0 0 C0.66 0.33 1.32 0.66 2 1 C0.18039755 4.10402772 -0.99303868 4.99703499 -4.375 6.4375 C-10.41815843 9.04230967 -13.93691926 14.00821509 -18 19 C-18.66 18.67 -19.32 18.34 -20 18 C-13.91055126 10.96583305 -8.21346357 4.62387579 0 0 Z " fill="#F5C880" transform="translate(384,62)"/>
<path d="M0 0 C3.48644501 0.36066673 6.26808222 1.85876715 9 4 C9.8125 7.1875 9.8125 7.1875 10 10 C6.84859577 9.65930765 5.39218439 9.41923159 3.1875 7.0625 C2 5 2 5 2 3 C0.68 2.67 -0.64 2.34 -2 2 C-1.34 1.34 -0.68 0.68 0 0 Z " fill="#4F6D7A" transform="translate(806,54)"/>
<path d="M0 0 C0.33 0 0.66 0 1 0 C1.32148707 8.39438455 1.61187471 17.26575035 -4 24 C-4.66 21.69 -5.32 19.38 -6 17 C-5.01 16.67 -4.02 16.34 -3 16 C-2.7834375 14.0509375 -2.7834375 14.0509375 -2.5625 12.0625 C-2.125 8.125 -2.125 8.125 -1 7 C-0.63239269 4.67182036 -0.29758419 2.3381615 0 0 Z " fill="#E0C86A" transform="translate(337,81)"/>
<path d="M0 0 C0.33 0.66 0.66 1.32 1 2 C-3.06318681 7.61675824 -3.06318681 7.61675824 -6.75 9.125 C-11.3804587 8.94690543 -14.9297373 7.10749158 -19 5 C-18.01 4.34 -17.02 3.68 -16 3 C-16 3.66 -16 4.32 -16 5 C-12.37 5.66 -8.74 6.32 -5 7 C-5 5.35 -5 3.7 -5 2 C-3.35 1.34 -1.7 0.68 0 0 Z " fill="#D7CB78" transform="translate(332,106)"/>
<path d="M0 0 C-0.33 0.66 -0.66 1.32 -1 2 C-5.29581527 3.26761762 -8.50944298 4 -13 4 C-13 4.66 -13 5.32 -13 6 C-14.98 6.33 -16.96 6.66 -19 7 C-18.3984375 5.14453125 -18.3984375 5.14453125 -17 3 C-14.1015625 1.69921875 -14.1015625 1.69921875 -10.625 0.6875 C-9.48289062 0.34074219 -8.34078125 -0.00601563 -7.1640625 -0.36328125 C-4.21160741 -0.95741727 -2.76133681 -1.05420494 0 0 Z " fill="#FDB953" transform="translate(405,45)"/>
<path d="M0 0 C1.485 0.99 1.485 0.99 3 2 C3.1875 5.125 3.1875 5.125 3 8 C3.99 7.67 4.98 7.34 6 7 C7.41778293 9.83556587 6.86257622 11.9908706 6.5625 15.125 C6.46066406 16.22070312 6.35882813 17.31640625 6.25390625 18.4453125 C6.12822266 19.70988281 6.12822266 19.70988281 6 21 C4.0326586 17.46410262 2.97745912 13.82060602 1.875 9.9375 C1.52179688 8.70902344 1.16859375 7.48054687 0.8046875 6.21484375 C0 3 0 3 0 0 Z " fill="#1FA044" transform="translate(440,219)"/>
<path d="M0 0 C2.3911458 0.39992755 4.1183612 1.18246463 6.21875 2.37109375 C3.67596207 3.15349004 1.97382378 3.35024897 -0.71875 3.12109375 C-4.90451272 3.46278867 -6.11222643 5.25723292 -8.78125 8.37109375 C-9.44125 9.03109375 -10.10125 9.69109375 -10.78125 10.37109375 C-11.1521342 7.12585701 -10.84650938 5.49877516 -9.34375 2.55859375 C-6.0779721 -0.22926544 -4.1615064 -0.12113974 0 0 Z " fill="#FACB59" transform="translate(302.78125,38.62890625)"/>
<path d="M0 0 C1.32 0 2.64 0 4 0 C4.625 1.8125 4.625 1.8125 5 4 C4.01 5.485 4.01 5.485 3 7 C3.66 7.33 4.32 7.66 5 8 C5.4140625 10.94140625 5.4140625 10.94140625 5.625 14.5625 C5.69976562 15.76003906 5.77453125 16.95757812 5.8515625 18.19140625 C5.90054687 19.11824219 5.94953125 20.04507813 6 21 C3.74982247 17.62473371 2.86995001 14.36925005 1.875 10.5 C1.60236328 9.48486328 1.60236328 9.48486328 1.32421875 8.44921875 C0.56317822 5.54810937 0 3.0122546 0 0 Z " fill="#269C41" transform="translate(409,106)"/>
<path d="M0 0 C1.485 0.99 1.485 0.99 3 2 C3 2.66 3 3.32 3 4 C3.99 4 4.98 4 6 4 C6 5.32 6 6.64 6 8 C6.66 8 7.32 8 8 8 C9.42944945 10.35438733 10.08661261 11.48032433 9.625 14.25 C9.41875 14.8275 9.2125 15.405 9 16 C8.34 15.67 7.68 15.34 7 15 C6.5 13 6.5 13 6 11 C5.34 10.67 4.68 10.34 4 10 C3.690625 9.21625 3.38125 8.4325 3.0625 7.625 C2.01626291 5.04017895 1.07886465 3.7953831 -1 2 C-0.67 1.34 -0.34 0.68 0 0 Z " fill="#F5CB5B" transform="translate(321,50)"/>
<path d="M0 0 C0.33 0.66 0.66 1.32 1 2 C-5.46091644 3.01347709 -5.46091644 3.01347709 -8.5 2.9375 C-11.86793297 3.02169832 -14.80043615 3.99621526 -18 5 C-17 2 -17 2 -15.21484375 1.015625 C-9.66495419 -0.85020408 -5.73930218 -1.33233801 0 0 Z " fill="#FECA65" transform="translate(411,57)"/>
<path d="M0 0 C0.33 0.99 0.66 1.98 1 3 C-4 6.33333333 -9 9.66666667 -14 13 C-13.74609375 10.6328125 -13.74609375 10.6328125 -13 8 C-11.22265625 6.7421875 -11.22265625 6.7421875 -9.0625 5.875 C-5.74109858 4.5126829 -5.10865294 4.16297941 -3 1 C-2.01 0.67 -1.02 0.34 0 0 Z " fill="#FCC85C" transform="translate(389,61)"/>
<path d="M0 0 C-0.66 1.32 -1.32 2.64 -2 4 C-3.98 4 -5.96 4 -8 4 C-8 4.66 -8 5.32 -8 6 C-9.65 6 -11.3 6 -13 6 C-13.33 5.01 -13.66 4.02 -14 3 C-9.07015675 0.96006486 -5.42039575 -0.40652968 0 0 Z " fill="#5E7884" transform="translate(785,50)"/>
<path d="M0 0 C-3.61285943 3.21667119 -7.52331762 4.33514233 -12.0625 5.6875 C-12.78244141 5.91244141 -13.50238281 6.13738281 -14.24414062 6.36914062 C-17.25930869 7.29020868 -19.83011728 8 -23 8 C-23 7.34 -23 6.68 -23 6 C-21.68 6 -20.36 6 -19 6 C-18.67 5.34 -18.34 4.68 -18 4 C-16.02 4 -14.04 4 -12 4 C-12 3.34 -12 2.68 -12 2 C-7.82262526 0.40861915 -4.46839215 -0.21278058 0 0 Z " fill="#F1B46B" transform="translate(404,47)"/>
<path d="M0 0 C0.66 0 1.32 0 2 0 C2.02689216 1.47906892 2.04634621 2.95827483 2.0625 4.4375 C2.07410156 5.26121094 2.08570313 6.08492187 2.09765625 6.93359375 C2 9 2 9 1 10 C-0.4887186 10.08669432 -1.981445 10.10703494 -3.47265625 10.09765625 C-4.37177734 10.09443359 -5.27089844 10.09121094 -6.19726562 10.08789062 C-7.14279297 10.07951172 -8.08832031 10.07113281 -9.0625 10.0625 C-10.01189453 10.05798828 -10.96128906 10.05347656 -11.93945312 10.04882812 C-14.29303065 10.0370011 -16.64648477 10.02052025 -19 10 C-19 9.67 -19 9.34 -19 9 C-12.73 8.67 -6.46 8.34 0 8 C0 5.36 0 2.72 0 0 Z " fill="#089261" transform="translate(647,242)"/>
<path d="M0 0 C0.66 0.33 1.32 0.66 2 1 C0.29711802 2.13323463 -1.41258523 3.25622235 -3.125 4.375 C-4.07632812 5.00148437 -5.02765625 5.62796875 -6.0078125 6.2734375 C-8.95981219 7.97681069 -11.73870494 9.04193409 -15 10 C-13.625 8.5 -13.625 8.5 -12 7 C-11.34 7 -10.68 7 -10 7 C-10.33 5.35 -10.66 3.7 -11 2 C-9.01432292 2.06510417 -7.02864583 2.13020833 -5.04296875 2.1953125 C-2.68640281 2.13254462 -2.68640281 2.13254462 0 0 Z " fill="#1FA33F" transform="translate(374,240)"/>
<path d="M0 0 C0.66 0.33 1.32 0.66 2 1 C1.67 1.99 1.34 2.98 1 4 C-5.6 4 -12.2 4 -19 4 C-14.75197923 1.87598962 -11.83238937 1.7623893 -7.25 1.875 C-6.55261719 1.88402344 -5.85523438 1.89304688 -5.13671875 1.90234375 C-3.42433042 1.92580112 -1.71211996 1.96166896 0 2 C0 1.34 0 0.68 0 0 Z " fill="#11955E" transform="translate(191,248)"/>
<path d="M0 0 C4.29161047 -0.05783842 8.58312145 -0.0935412 12.875 -0.125 C14.09832031 -0.14175781 15.32164062 -0.15851563 16.58203125 -0.17578125 C17.74863281 -0.18222656 18.91523438 -0.18867188 20.1171875 -0.1953125 C21.19597168 -0.20578613 22.27475586 -0.21625977 23.38623047 -0.22705078 C26 0 26 0 28 2 C26.02 3.65 24.04 5.3 22 7 C22.66 5.02 23.32 3.04 24 1 C16.08 1 8.16 1 0 1 C0 0.67 0 0.34 0 0 Z " fill="#27A946" transform="translate(239,140)"/>
<path d="M0 0 C2.31 0 4.62 0 7 0 C7.66 1.32 8.32 2.64 9 4 C4.71 4 0.42 4 -4 4 C-4 3.34 -4 2.68 -4 2 C-2.68 2 -1.36 2 0 2 C0 1.34 0 0.68 0 0 Z " fill="#FEBF5B" transform="translate(395,30)"/>
<path d="M0 0 C0.66 0.33 1.32 0.66 2 1 C2.4140625 3.94140625 2.4140625 3.94140625 2.625 7.5625 C2.69976562 8.76003906 2.77453125 9.95757812 2.8515625 11.19140625 C2.90054687 12.11824219 2.94953125 13.04507813 3 14 C1.0078125 12.1953125 1.0078125 12.1953125 -1 10 C-1.125 6.875 -1.125 6.875 -1 4 C-1.66 3.34 -2.32 2.68 -3 2 C-2.01 1.34 -1.02 0.68 0 0 Z " fill="#B0BF62" transform="translate(261,108)"/>
<path d="M0 0 C3.63627836 3.79256539 4.1893404 8.27862147 5.1875 13.25 C5.36474609 14.09046875 5.54199219 14.9309375 5.72460938 15.796875 C6.15889776 17.86267921 6.58068676 19.9311042 7 22 C6.34 22 5.68 22 5 22 C4.1602972 19.08503169 3.32803997 16.1682814 2.5 13.25 C2.26152344 12.425 2.02304687 11.6 1.77734375 10.75 C1.55175781 9.95078125 1.32617188 9.1515625 1.09375 8.328125 C0.88427734 7.5949707 0.67480469 6.86181641 0.45898438 6.10644531 C0 4 0 4 0 0 Z " fill="#259C46" transform="translate(525,196)"/>
<path d="M0 0 C0 0.99 0 1.98 0 3 C-0.66 3 -1.32 3 -2 3 C-2 4.98 -2 6.96 -2 9 C-3.32 8.34 -4.64 7.68 -6 7 C-7.32 8.32 -8.64 9.64 -10 11 C-10.66 10.67 -11.32 10.34 -12 10 C-10.75645114 8.70212134 -9.5048736 7.41193241 -8.25 6.125 C-7.55390625 5.40570313 -6.8578125 4.68640625 -6.140625 3.9453125 C-4.14877783 2.13520321 -2.4572342 1.05151914 0 0 Z " fill="#1FA240" transform="translate(237,142)"/>
<path d="M0 0 C2.18877974 3.2831696 2.20692788 3.70771403 1.6875 7.375 C1.57664062 8.1690625 1.46578125 8.963125 1.3515625 9.78125 C1.23554687 10.5134375 1.11953125 11.245625 1 12 C0.855625 12.94875 0.71125 13.8975 0.5625 14.875 C0 17 0 17 -2 20 C-2.3690205 6.3667426 -2.3690205 6.3667426 0 0 Z " fill="#536F75" transform="translate(750,75)"/>
<path d="M0 0 C0.99 0.33 1.98 0.66 3 1 C1.68 2.32 0.36 3.64 -1 5 C-0.67 3.35 -0.34 1.7 0 0 Z M-3 5 C-2.34 5.33 -1.68 5.66 -1 6 C-4 10 -7 14 -10 18 C-10 16.02 -10 14.04 -10 12 C-9.401875 11.773125 -8.80375 11.54625 -8.1875 11.3125 C-5.43648112 9.66188867 -4.47515363 7.8027919 -3 5 Z " fill="#FCB949" transform="translate(369,44)"/>
<path d="M0 0 C0.33 0 0.66 0 1 0 C1 3.96 1 7.92 1 12 C0.01 12.495 0.01 12.495 -1 13 C-1.65213292 15.02463255 -1.65213292 15.02463255 -2 17 C-2.66 17 -3.32 17 -4 17 C-2.68 11.39 -1.36 5.78 0 0 Z " fill="#1BA23F" transform="translate(571,143)"/>
<path d="M0 0 C0 4.11786118 -1.17877218 7.68781341 -2.3125 11.625 C-2.52583984 12.41390625 -2.73917969 13.2028125 -2.95898438 14.015625 C-3.54189742 16.04103032 -4.26224381 18.02572288 -5 20 C-5.99 20.33 -6.98 20.66 -8 21 C-7.51320781 18.80943517 -6.92729422 16.82550614 -6.0625 14.75 C-5.16937633 12.43838579 -4.59788464 10.34226936 -4.0625 7.9375 C-3.29526368 4.69055591 -2.29449848 2.50308925 0 0 Z " fill="#F8CC6D" transform="translate(363,82)"/>
<path d="M0 0 C3.2682346 3.14718888 6.1310659 6.49352499 9 10 C7.02 10.99 7.02 10.99 5 12 C3.5 10.8125 3.5 10.8125 2 9 C1.8125 6.3125 1.8125 6.3125 2 4 C1.34 4 0.68 4 0 4 C0 2.68 0 1.36 0 0 Z " fill="#1EA23B" transform="translate(310,215)"/>
<path d="M0 0 C-0.58007812 0.24234375 -1.16015625 0.4846875 -1.7578125 0.734375 C-6.51925397 2.77723767 -10.7638186 4.97415614 -15 8 C-15.99 8.66 -16.98 9.32 -18 10 C-15.97189609 4.83755369 -12.24774475 2.6348175 -7.4375 0.1875 C-3.97961993 -1.00704039 -3.26159399 -1.04913417 0 0 Z " fill="#2B9B49" transform="translate(718,140)"/>
<path d="M0 0 C0 1.32 0 2.64 0 4 C-1.48199902 3.55090939 -2.96055236 3.09043436 -4.4375 2.625 C-5.26121094 2.36976563 -6.08492188 2.11453125 -6.93359375 1.8515625 C-9 1 -9 1 -10 -1 C-6.06329512 -2.31223496 -3.87511856 -1.24296256 0 0 Z " fill="#B2C16D" transform="translate(283,130)"/>
<path d="M0 0 C0.97983761 3.04838368 1.21704816 5.00418914 0 8 C-2.0625 10.25 -2.0625 10.25 -4 12 C-3.5317879 7.22423661 -2.75668002 3.95523655 0 0 Z " fill="#F5C846" transform="translate(295,44)"/>
<path d="M0 0 C5.03985731 0.44469329 7.37634988 2.71343362 11 6 C10.67 6.99 10.34 7.98 10 9 C8.70391053 8.06862408 7.41328368 7.1296434 6.125 6.1875 C5.40570312 5.66542969 4.68640625 5.14335938 3.9453125 4.60546875 C2 3 2 3 0 0 Z " fill="#475E64" transform="translate(759,117)"/>
<path d="M0 0 C0.66 0 1.32 0 2 0 C2.309375 0.94875 2.61875 1.8975 2.9375 2.875 C3.87394742 5.86080408 3.87394742 5.86080408 5 8 C4.0625 10.125 4.0625 10.125 3 12 C2.29773859 10.75823305 1.61370891 9.50614401 0.9375 8.25 C0.36322266 7.20585938 0.36322266 7.20585938 -0.22265625 6.140625 C-1.1312406 3.63859372 -0.88336837 2.4667645 0 0 Z " fill="#BBC17E" transform="translate(256,105)"/>
<path d="M0 0 C1.63129887 4.06285757 0.29968777 7.20102184 -0.9375 11.25 C-1.31777344 12.51328125 -1.69804688 13.7765625 -2.08984375 15.078125 C-2.39019531 16.04234375 -2.69054687 17.0065625 -3 18 C-3.66 17.67 -4.32 17.34 -5 17 C-4.46246904 10.81839396 -2.45417612 5.673142 0 0 Z " fill="#1FA543" transform="translate(608,99)"/>
<path d="M0 0 C0.33 0 0.66 0 1 0 C1.28571429 7.42857143 1.28571429 7.42857143 -1 11 C-1.66 11 -2.32 11 -3 11 C-3.33 12.32 -3.66 13.64 -4 15 C-5.32830615 11.01508155 -4.23204404 9.59951452 -2.5625 5.8125 C-2.08941406 4.72582031 -1.61632812 3.63914063 -1.12890625 2.51953125 C-0.75636719 1.68808594 -0.38382812 0.85664062 0 0 Z " fill="#F1B66B" transform="translate(358,56)"/>
<path d="M0 0 C0 0.66 0 1.32 0 2 C-1.43410368 2.24954005 -2.87260072 2.47392642 -4.3125 2.6875 C-5.11300781 2.81511719 -5.91351563 2.94273437 -6.73828125 3.07421875 C-9 3 -9 3 -10.79296875 1.51953125 C-11.19128906 1.01808594 -11.58960938 0.51664063 -12 0 C-10.37585622 -0.19477739 -8.75063577 -0.38059458 -7.125 -0.5625 C-6.22007812 -0.66691406 -5.31515625 -0.77132812 -4.3828125 -0.87890625 C-2 -1 -2 -1 0 0 Z " fill="#AEC56D" transform="translate(298,131)"/>
<path d="M0 0 C2.1519437 3.22791555 2.20086443 4.28400809 2 8 C2.66 8 3.32 8 4 8 C4 8.66 4 9.32 4 10 C4.66 10 5.32 10 6 10 C5.67 10.66 5.34 11.32 5 12 C2.2198076 10.98059612 1.17185783 10.30279713 -0.3125 7.6875 C-1.07479299 4.7076274 -0.83686751 2.9290363 0 0 Z " fill="#E7CD5B" transform="translate(292,80)"/>
<path d="M0 0 C5.75 1.625 5.75 1.625 8 5 C8.07905064 7.33199388 8.08798769 9.66832622 8 12 C7.67 12 7.34 12 7 12 C7 10.02 7 8.04 7 6 C6.401875 5.896875 5.80375 5.79375 5.1875 5.6875 C2.68741714 4.90175967 1.62464918 4.03081147 0 2 C0 1.34 0 0.68 0 0 Z " fill="#F5BD70" transform="translate(402,30)"/>
<path d="M0 0 C1.32 0.33 2.64 0.66 4 1 C0.7 4.3 -2.6 7.6 -6 11 C-6 7.39451947 -5.22732784 6.72228959 -3 4 C-2.443125 3.2575 -1.88625 2.515 -1.3125 1.75 C-0.879375 1.1725 -0.44625 0.595 0 0 Z " fill="#269847" transform="translate(236,170)"/>
<path d="M0 0 C0.66 0.33 1.32 0.66 2 1 C1.06409496 2.1055189 0.12620142 3.20935453 -0.8125 4.3125 C-1.33457031 4.92738281 -1.85664063 5.54226562 -2.39453125 6.17578125 C-3.87172469 7.85424679 -5.40039131 9.43882034 -7 11 C-6.814375 10.38125 -6.62875 9.7625 -6.4375 9.125 C-5.76313824 6.95839822 -5.76313824 6.95839822 -7 5 C-5.60683123 2.21366246 -3.84019484 2.06507306 -1 1 C-0.67 0.67 -0.34 0.34 0 0 Z " fill="#1AA73A" transform="translate(315,167)"/>
<path d="M0 0 C0.33 0 0.66 0 1 0 C1 1.65 1 3.3 1 5 C0.34 5 -0.32 5 -1 5 C-1.268125 5.598125 -1.53625 6.19625 -1.8125 6.8125 C-2.98493467 8.97224808 -4.19369282 10.35790256 -6 12 C-5.43697042 8.05879291 -4.3208055 5.2491277 -2 2 C-1.34 2 -0.68 2 0 2 C0 1.34 0 0.68 0 0 Z " fill="#EDD86E" transform="translate(405,93)"/>
<path d="M0 0 C1.32 1.32 2.64 2.64 4 4 C3.34 4.66 2.68 5.32 2 6 C2 5.34 2 4.68 2 4 C1.01 4 0.02 4 -1 4 C-1.33 5.65 -1.66 7.3 -2 9 C-2.97110486 5.97878489 -3.13617383 3.99536737 -2 1 C-1.34 0.67 -0.68 0.34 0 0 Z " fill="#1AA73B" transform="translate(492,113)"/>
<path d="M0 0 C3.25524265 3.02272532 5.61820737 6.25718301 8 10 C7.67 10.66 7.34 11.32 7 12 C6.7525 11.38125 6.505 10.7625 6.25 10.125 C5.17603789 7.84998472 5.17603789 7.84998472 2.9375 7 C1 6 1 6 0.25 4 C0 2 0 2 0 0 Z " fill="#21A040" transform="translate(243,211)"/>
<path d="M0 0 C1.95216435 3.90432869 2.50639991 6.72213252 3 11 C1.68 11.33 0.36 11.66 -1 12 C-0.67 8.04 -0.34 4.08 0 0 Z " fill="#18A339" transform="translate(538,162)"/>
<path d="M0 0 C0.66 0.99 1.32 1.98 2 3 C-3.41538462 7.06153846 -3.41538462 7.06153846 -6.375 6.75 C-6.91125 6.5025 -7.4475 6.255 -8 6 C-7.34 6 -6.68 6 -6 6 C-5.67 5.01 -5.34 4.02 -5 3 C-3 1.875 -3 1.875 -1 1 C-0.67 0.67 -0.34 0.34 0 0 Z " fill="#44595D" transform="translate(810,121)"/>
<path d="M0 0 C2 1.375 2 1.375 4 3 C4 3.66 4 4.32 4 5 C4.66 5 5.32 5 6 5 C6 5.99 6 6.98 6 8 C2.2047869 6.50902342 0.38957269 4.24299151 -2 1 C-1.34 0.67 -0.68 0.34 0 0 Z " fill="#ADBC71" transform="translate(266,121)"/>
<path d="M0 0 C0.66 0.33 1.32 0.66 2 1 C2 3.64 2 6.28 2 9 C0.68 8.34 -0.64 7.68 -2 7 C-2 3.89448334 -1.4606285 2.64738916 0 0 Z " fill="#4F707B" transform="translate(827,89)"/>
<path d="M0 0 C1.32 0.66 2.64 1.32 4 2 C1.03 4.475 1.03 4.475 -2 7 C-1.34 4.69 -0.68 2.38 0 0 Z M-3 7 C-2.67 7.66 -2.34 8.32 -2 9 C-2.99 9.99 -3.98 10.98 -5 12 C-5 10.68 -5 9.36 -5 8 C-4.34 7.67 -3.68 7.34 -3 7 Z " fill="#54727F" transform="translate(761,60)"/>
<path d="M0 0 C4.27452339 0.35621028 5.72574144 1.37988563 8.75 4.3125 C7.33249437 4.19740339 5.91598831 4.06996342 4.5 3.9375 C3.71109375 3.86789063 2.9221875 3.79828125 2.109375 3.7265625 C-0.335877 3.29742887 -2.09836903 2.52649362 -4.25 1.3125 C-3.25 0.3125 -3.25 0.3125 0 0 Z " fill="#455D5E" transform="translate(779.25,126.6875)"/>
<path d="M0 0 C0.33 0 0.66 0 1 0 C1.10477512 5.78591511 0.99250545 11.29309366 0 17 C-0.33 17 -0.66 17 -1 17 C-1.19412181 15.52168779 -1.38012131 14.04230684 -1.5625 12.5625 C-1.66691406 11.73878906 -1.77132813 10.91507813 -1.87890625 10.06640625 C-1.91886719 9.38449219 -1.95882813 8.70257813 -2 8 C-1.67 7.67 -1.34 7.34 -1 7 C-0.63239269 4.67182036 -0.29758419 2.3381615 0 0 Z " fill="#DFC279" transform="translate(337,81)"/>
<path d="M0 0 C2.31 1.98 4.62 3.96 7 6 C6.67 6.66 6.34 7.32 6 8 C4.68 8 3.36 8 2 8 C1.34 5.36 0.68 2.72 0 0 Z " fill="#4B606B" transform="translate(815,59)"/>
<path d="M0 0 C0 0.33 0 0.66 0 1 C-0.62648438 1.04898438 -1.25296875 1.09796875 -1.8984375 1.1484375 C-2.71570313 1.22320312 -3.53296875 1.29796875 -4.375 1.375 C-5.18710937 1.44460937 -5.99921875 1.51421875 -6.8359375 1.5859375 C-9.20334191 1.82892588 -9.20334191 1.82892588 -11 4 C-12.98821313 4.39764263 -14.98944339 4.73775349 -17 5 C-17 4.34 -17 3.68 -17 3 C-11.17521449 -0.03901852 -6.51791392 -0.3540919 0 0 Z " fill="#FCB74C" transform="translate(399,34)"/>
<path d="M0 0 C1.69433918 3.0469629 2.49467112 5.82821466 3.125 9.25 C3.29257812 10.14203125 3.46015625 11.0340625 3.6328125 11.953125 C3.75398437 12.62859375 3.87515625 13.3040625 4 14 C1.32131513 12.66065756 1.25045922 11.48307603 0.3125 8.6875 C0.04050781 7.90761719 -0.23148438 7.12773437 -0.51171875 6.32421875 C-1.03839183 3.81725489 -0.8178554 2.39867657 0 0 Z " fill="#1EA142" transform="translate(541,173)"/>
<path d="M0 0 C3.21043882 1.38188453 5.04936365 2.92421903 7.25 5.625 C8.03117187 6.57246094 8.03117187 6.57246094 8.828125 7.5390625 C9.40820312 8.26222656 9.40820312 8.26222656 10 9 C9.67 9.66 9.34 10.32 9 11 C7.88625 9.63875 7.88625 9.63875 6.75 8.25 C5.12378231 6.29019919 3.4934645 4.4934645 1.6875 2.6875 C1.130625 2.130625 0.57375 1.57375 0 1 C0 0.67 0 0.34 0 0 Z " fill="#1D9F3F" transform="translate(376,151)"/>
<path d="M0 0 C1.65 0.33 3.3 0.66 5 1 C2.22719294 4.08089673 -0.06326356 5.68775452 -4 7 C-3.67 6.01 -3.34 5.02 -3 4 C-2.34 4 -1.68 4 -1 4 C-0.67 2.68 -0.34 1.36 0 0 Z " fill="#EDB95C" transform="translate(372,56)"/>
<path d="M0 0 C6.75 1.75 6.75 1.75 9 4 C9.33 4.99 9.66 5.98 10 7 C5.56541027 5.6062718 3.12621626 3.39417765 0 0 Z " fill="#2A9E44" transform="translate(301,240)"/>
<path d="M0 0 C1.25127906 3.54667178 0.72285053 5.72253438 -0.4375 9.25 C-0.72496094 10.14203125 -1.01242187 11.0340625 -1.30859375 11.953125 C-1.53675781 12.62859375 -1.76492188 13.3040625 -2 14 C-2.93423645 10.98968256 -3.04449911 10.13349732 -2 7 C-2.66 6.67 -3.32 6.34 -4 6 C-3.01 5.67 -2.02 5.34 -1 5 C-0.67 3.35 -0.34 1.7 0 0 Z " fill="#1D9F43" transform="translate(488,205)"/>
<path d="M0 0 C0.99 0 1.98 0 3 0 C2.71572583 1.58467728 2.42225182 3.1677057 2.125 4.75 C1.88136719 6.07257813 1.88136719 6.07257813 1.6328125 7.421875 C1.03203736 9.86947744 0.22002883 11.80599857 -1 14 C-1.18451025 4.58997722 -1.18451025 4.58997722 0 0 Z " fill="#1CA440" transform="translate(490,191)"/>
<path d="M0 0 C0.66 0.33 1.32 0.66 2 1 C2.40729228 3.32156597 2.74438677 5.6568787 3 8 C2.01 8.33 1.02 8.66 0 9 C0 8.34 0 7.68 0 7 C-0.66 6.67 -1.32 6.34 -2 6 C-1.34 4.02 -0.68 2.04 0 0 Z " fill="#14A442" transform="translate(444,143)"/>
<path d="M0 0 C0.66 0 1.32 0 2 0 C2.66 1.32 3.32 2.64 4 4 C3.01 4.495 3.01 4.495 2 5 C1.01 6.485 1.01 6.485 0 8 C-0.66 7.01 -1.32 6.02 -2 5 C-1 2 -1 2 0 0 Z " fill="#C8CB78" transform="translate(298,119)"/>
<path d="M0 0 C1.32 0 2.64 0 4 0 C4.625 1.8125 4.625 1.8125 5 4 C4.01 5.485 4.01 5.485 3 7 C2.34 7 1.68 7 1 7 C0.67 4.69 0.34 2.38 0 0 Z " fill="#1DA03D" transform="translate(409,106)"/>
<path d="M0 0 C-0.75 1.9375 -0.75 1.9375 -2 4 C-4.125 4.75 -4.125 4.75 -6 5 C-6 5.66 -6 6.32 -6 7 C-6.99 6.67 -7.98 6.34 -9 6 C-3.2 0 -3.2 0 0 0 Z " fill="#48646D" transform="translate(771,54)"/>
<path d="M0 0 C1.98 0.66 3.96 1.32 6 2 C5.67 2.66 5.34 3.32 5 4 C2.67843403 4.40729228 0.3431213 4.74438677 -2 5 C-2.33 4.34 -2.66 3.68 -3 3 C-2.01 3 -1.02 3 0 3 C0 2.01 0 1.02 0 0 Z " fill="#455F6E" transform="translate(802,51)"/>
<path d="M0 0 C0.99 0.33 1.98 0.66 3 1 C1.02 3.97 -0.96 6.94 -3 10 C-3.33 9.34 -3.66 8.68 -4 8 C-3.22265625 6.0546875 -3.22265625 6.0546875 -2.0625 3.875 C-1.49208984 2.78832031 -1.49208984 2.78832031 -0.91015625 1.6796875 C-0.60980469 1.12539062 -0.30945313 0.57109375 0 0 Z " fill="#50656A" transform="translate(824,105)"/>
<path d="M0 0 C2.31 0 4.62 0 7 0 C7 0.66 7 1.32 7 2 C4.36 2.66 1.72 3.32 -1 4 C-0.67 2.68 -0.34 1.36 0 0 Z " fill="#BAC357" transform="translate(260,106)"/>
<path d="M0 0 C2.25 -0.375 2.25 -0.375 5 0 C7.3125 3 7.3125 3 9 6 C5.06326356 4.68775452 2.77280706 3.08089673 0 0 Z " fill="#DACF78" transform="translate(304,104)"/>
<path d="M0 0 C1.65 0.33 3.3 0.66 5 1 C5 1.99 5 2.98 5 4 C3.02 4.33 1.04 4.66 -1 5 C-0.67 3.35 -0.34 1.7 0 0 Z " fill="#4F6E7C" transform="translate(818,66)"/>
<path d="M0 0 C1.8125 0.1875 1.8125 0.1875 4 1 C5.8125 3.4375 5.8125 3.4375 7 6 C6.67 6.66 6.34 7.32 6 8 C4.99403703 7.0479279 3.99538437 6.08812654 3 5.125 C2.443125 4.59132813 1.88625 4.05765625 1.3125 3.5078125 C0 2 0 2 0 0 Z " fill="#DBD377" transform="translate(297,96)"/>
<path d="M0 0 C1 2 1 2 0.0625 5.125 C-0.288125 6.07375 -0.63875 7.0225 -1 8 C-1.66 8 -2.32 8 -3 8 C-3.33 8.66 -3.66 9.32 -4 10 C-3.67 8.02 -3.34 6.04 -3 4 C-2.34 4 -1.68 4 -1 4 C-0.67 2.68 -0.34 1.36 0 0 Z " fill="#F9C349" transform="translate(358,63)"/>
<path d="M0 0 C0.99 0.495 0.99 0.495 2 1 C3.26229508 5.47540984 3.26229508 5.47540984 2 8 C1.34 8 0.68 8 0 8 C0 5.36 0 2.72 0 0 Z " fill="#19AC3C" transform="translate(696,150)"/>
<path d="M0 0 C1.32 0 2.64 0 4 0 C4 1.32 4 2.64 4 4 C2.35 4.33 0.7 4.66 -1 5 C-0.67 3.35 -0.34 1.7 0 0 Z " fill="#F6D350" transform="translate(353,116)"/>
<path d="M0 0 C0.99 0.33 1.98 0.66 3 1 C-0.465 3.97 -0.465 3.97 -4 7 C-4.33 6.01 -4.66 5.02 -5 4 C-4.01 4 -3.02 4 -2 4 C-1.34 2.68 -0.68 1.36 0 0 Z " fill="#E5CC6E" transform="translate(396,105)"/>
<path d="M0 0 C0.66 0.33 1.32 0.66 2 1 C2 1.66 2 2.32 2 3 C1.34 3 0.68 3 0 3 C-0.66 4.65 -1.32 6.3 -2 8 C-2.99 7.67 -3.98 7.34 -5 7 C-4.01 6.67 -3.02 6.34 -2 6 C-1.855625 5.195625 -1.71125 4.39125 -1.5625 3.5625 C-1 1 -1 1 0 0 Z " fill="#F9B74A" transform="translate(369,57)"/>
<path d="M0 0 C0.66 0 1.32 0 2 0 C1.67 1.65 1.34 3.3 1 5 C-0.65 5.33 -2.3 5.66 -4 6 C-2.7260411 3.96166576 -1.38938077 1.96147874 0 0 Z " fill="#F9CB56" transform="translate(398,100)"/>
<path d="M0 0 C0.66 0.33 1.32 0.66 2 1 C0.7260411 3.03833424 -0.61061923 5.03852126 -2 7 C-2.66 7 -3.32 7 -4 7 C-3.43628586 3.73045798 -2.50037734 2.17424117 0 0 Z " fill="#576770" transform="translate(760,61)"/>
<path d="M0 0 C-0.33 0.99 -0.66 1.98 -1 3 C-4 4 -4 4 -6.1875 3.0625 C-6.785625 2.711875 -7.38375 2.36125 -8 2 C-4.91190305 0.23537317 -3.76687864 0 0 0 Z " fill="#F5C976" transform="translate(394,59)"/>
<path d="M0 0 C-2.71182212 2.60334924 -3.89133813 2.99456691 -7.75 3.1875 C-8.8225 3.125625 -9.895 3.06375 -11 3 C-7.11595442 0.41063628 -4.5725325 -0.12358196 0 0 Z " fill="#F8C78A" transform="translate(403,56)"/>
<path d="M0 0 C5.75 -0.125 5.75 -0.125 8 1 C8.625 3.0625 8.625 3.0625 9 5 C8.34 5 7.68 5 7 5 C7 4.34 7 3.68 7 3 C4.69 2.34 2.38 1.68 0 1 C0 0.67 0 0.34 0 0 Z " fill="#657A80" transform="translate(794,50)"/>
</svg>
